<?xml version="1.0" encoding="UTF-8"?>
<svg id="Capa_1" data-name="Capa 1" xmlns="http://www.w3.org/2000/svg" viewBox="0 0 12.62 15.64">
  <defs>
    <style>
      .cls-1 {
        fill: #d8b315;
      }

      .cls-1, .cls-2 {
        stroke-width: 0px;
      }

      .cls-2 {
        fill: #29235c;
      }
    </style>
  </defs>
  <path class="cls-1" d="m7.79,5.38c0,.19.14.43.23.59.22.41.59.72.96.98.4.29.81.57,1.23.83.81.48,1.6,1.1,2.06,1.94.53.96.4,2.09-.04,3.05-.56,1.22-1.77,1.97-3.1,2.04-.44.02-.89-.02-1.32-.09,0,0,2.46-.66,2.43-3.24,0-.85-.35-1.58-.95-2.17-.27-.26-.58-.45-.86-.69-.19-.15-.61-.43-.61-.7,0-.66-.03-2.55-.03-2.55Z"/>
  <path class="cls-1" d="m7.35,0s-.18,1.18-1.01,1.86c-.74.61-1.52,1.17-2.3,1.72-1.26.88-2.49,1.89-3.29,3.23C0,8.06-.15,9.41.13,10.81c.12.62.4,1.28.71,1.84.7,1.27,1.91,2.1,3.27,2.52,1.06.33,2.17.45,3.28.46,0,0-4.12-1.12-4.08-5.43,0,0-.26-2.33,1.93-3.97,0,0,2.11-1.39,2.1-2.03-.02-1.12,0-4.21,0-4.21Z"/>
  <path class="cls-2" d="m5.42,13.09c.08.08.2.14.32.14.04,0,.09-.01.13.01.05.03.06.09.08.14.04.09.14.15.24.16,0-.13-.01-.26.02-.38.03-.11.1-.2.19-.27.08-.07.19-.09.29-.11.2-.04.41-.04.61-.07.5-.08.75-.3.86-.8.04-.2.06-.41.07-.62.01-.14.03-.28.17-.37.02-.01.03-.03.04-.06-.24-.09-.37-.04-.47.19,0,.02-.02.05-.03.07-.06.19-.12.39-.18.58,0,.02,0,.06-.04.07-.02-.01-.02-.04-.02-.05-.02-.15-.04-.31-.06-.46-.04-.4-.26-.66-.63-.8-.18-.07-.35-.13-.52-.21-.39-.16-.74-.38-1-.72,0,0-.01-.02-.03-.01-.03.44.21.7.59.87-.04.05-.08.07-.12.1-.06.04-.12.07-.16.13-.11.15-.1.31-.02.47.1.21.26.37.43.51.09.07.18.14.29.22-.06-.02-.1-.03-.14-.05-.3-.11-.55-.29-.71-.57-.15-.26-.13-.52.05-.76.04-.04.03-.06-.01-.09-.2-.14-.32-.34-.33-.59-.01-.2.01-.4,0-.62.04.05.07.09.1.12.29.36.64.63,1.07.82.21.09.42.17.63.26.28.12.5.31.6.61.02.05.03.1.05.16.05-.1.08-.19.14-.27.11-.15.26-.22.44-.14.13.05.25.13.38.21-.28.05-.34.11-.36.38-.02.25-.03.49-.1.74-.09.33-.25.59-.58.72-.13.06-.27.08-.41.1-.25.04-.51.02-.75.11-.11.05-.18.11-.22.23-.03.07-.04.14-.03.22,0,.08.09.22-.03.24-.17.04-.36-.04-.45-.18-.02-.02-.03-.05-.06-.06-.03-.01-.06,0-.09,0-.14,0-.27-.09-.34-.21s-.09-.26-.11-.4c.06.11.12.21.2.3,0,0,0,0,0,0Z"/>
</svg>