<?xml version="1.0" encoding="UTF-8"?>
<!DOCTYPE svg PUBLIC "-//W3C//DTD SVG 1.1//EN" "http://www.w3.org/Graphics/SVG/1.1/DTD/svg11.dtd">
<svg xmlns="http://www.w3.org/2000/svg" version="1.1" width="1736px" height="647px" style="shape-rendering:geometricPrecision; text-rendering:geometricPrecision; image-rendering:optimizeQuality; fill-rule:evenodd; clip-rule:evenodd" xmlns:xlink="http://www.w3.org/1999/xlink">
<g><path style="opacity:0.964" fill="#fefffe" d="M 304.5,-0.5 C 309.167,-0.5 313.833,-0.5 318.5,-0.5C 342.561,2.60881 359.394,15.2755 369,37.5C 370.951,43.3457 371.785,49.3457 371.5,55.5C 359.167,55.5 346.833,55.5 334.5,55.5C 335.282,43.2828 334.115,31.2828 331,19.5C 324.704,7.27439 314.871,3.10772 301.5,7C 291.085,12.6506 285.919,21.4839 286,33.5C 285.897,51.5218 291.563,67.5218 303,81.5C 318.297,99.1321 333.964,116.465 350,133.5C 360.327,145.511 367.661,159.178 372,174.5C 377.032,206.948 364.198,228.781 333.5,240C 303.611,248.903 277.778,242.403 256,220.5C 248.68,210.373 244.847,199.04 244.5,186.5C 257.833,186.5 271.167,186.5 284.5,186.5C 283.876,197.97 284.709,209.304 287,220.5C 295.047,237.073 307.547,241.573 324.5,234C 331.316,228.883 335.483,222.049 337,213.5C 339.421,198.52 336.754,184.52 329,171.5C 315.533,152.356 300.2,134.689 283,118.5C 271.331,106.826 261.998,93.4927 255,78.5C 241.825,33.5176 258.325,7.18427 304.5,-0.5 Z"/></g>
<g><path style="opacity:0.965" fill="#fefffe" d="M 752.5,-0.5 C 765.167,-0.5 777.833,-0.5 790.5,-0.5C 790.5,15.5 790.5,31.5 790.5,47.5C 797.167,47.5 803.833,47.5 810.5,47.5C 810.5,49.5 810.5,51.5 810.5,53.5C 803.833,53.5 797.167,53.5 790.5,53.5C 790.5,115.833 790.5,178.167 790.5,240.5C 777.833,240.5 765.167,240.5 752.5,240.5C 752.5,178.167 752.5,115.833 752.5,53.5C 745.833,53.5 739.167,53.5 732.5,53.5C 732.5,51.5 732.5,49.5 732.5,47.5C 739.167,47.5 745.833,47.5 752.5,47.5C 752.5,31.5 752.5,15.5 752.5,-0.5 Z"/></g>
<g><path style="opacity:0.962" fill="#fefffe" d="M 852.5,0.5 C 871.81,0.643949 880.31,10.3106 878,29.5C 872.798,42.3524 863.298,47.1857 849.5,44C 834.496,36.3205 830.662,24.8205 838,9.5C 842.053,5.06603 846.886,2.06603 852.5,0.5 Z"/></g>
<g><path style="opacity:0.962" fill="#fefffe" d="M 1061.5,0.5 C 1074.17,0.5 1086.83,0.5 1099.5,0.5C 1099.5,80.5 1099.5,160.5 1099.5,240.5C 1086.83,240.5 1074.17,240.5 1061.5,240.5C 1061.67,227.163 1061.5,213.829 1061,200.5C 1048.66,225.604 1028.49,239.771 1000.5,243C 964.434,247.044 936.267,234.211 916,204.5C 899.917,172.922 900.917,141.922 919,111.5C 939.739,85.0567 966.906,73.89 1000.5,78C 1028.49,81.2272 1048.65,95.3939 1061,120.5C 1061.5,80.5014 1061.67,40.5014 1061.5,0.5 Z M 993.5,85.5 C 1023.44,83.9409 1044.27,96.9409 1056,124.5C 1065.77,151.753 1064.44,178.42 1052,204.5C 1031.13,236.796 1003.96,243.63 970.5,225C 954.02,210.264 945.187,191.764 944,169.5C 940.982,140.542 949.815,116.042 970.5,96C 977.506,90.8265 985.173,87.3265 993.5,85.5 Z"/></g>
<g><path style="opacity:0.961" fill="#fefffe" d="M 1452.5,0.5 C 1465.17,0.5 1477.83,0.5 1490.5,0.5C 1490.5,80.5 1490.5,160.5 1490.5,240.5C 1477.83,240.5 1465.17,240.5 1452.5,240.5C 1452.67,226.829 1452.5,213.163 1452,199.5C 1439.99,225.152 1419.83,239.652 1391.5,243C 1365.19,246.261 1341.86,239.594 1321.5,223C 1297.53,197.836 1290.03,168.336 1299,134.5C 1312.6,97.0966 1339.43,78.0966 1379.5,77.5C 1412.62,77.1299 1436.79,91.4632 1452,120.5C 1452.5,80.5014 1452.67,40.5014 1452.5,0.5 Z M 1383.5,85.5 C 1416.26,84.4049 1438.09,99.4049 1449,130.5C 1458.17,160.685 1453.83,188.685 1436,214.5C 1416.7,235.96 1393.87,240.793 1367.5,229C 1347.82,215.502 1336.99,196.669 1335,172.5C 1331.69,146.412 1338.02,123.078 1354,102.5C 1362.32,94.093 1372.15,88.4263 1383.5,85.5 Z"/></g>
<g><path style="opacity:0.96" fill="#fefffe" d="M 456.5,58.5 C 481.467,55.3537 502.634,62.687 520,80.5C 527.669,90.5004 532.003,101.834 533,114.5C 533.5,156.499 533.667,198.499 533.5,240.5C 520.833,240.5 508.167,240.5 495.5,240.5C 495.666,232.493 495.5,224.493 495,216.5C 487.256,231.889 474.756,240.723 457.5,243C 433.5,246.674 414,239.174 399,220.5C 386.481,197.725 388.148,176.058 404,155.5C 413.097,146.701 423.93,141.201 436.5,139C 456.164,138.5 475.831,138.333 495.5,138.5C 495.888,122.128 495.388,105.795 494,89.5C 489.126,66.6509 475.959,59.4842 454.5,68C 447.609,73.945 443.443,81.445 442,90.5C 440.693,99.4483 440.193,108.448 440.5,117.5C 427.833,117.5 415.167,117.5 402.5,117.5C 402.989,94.3481 413.322,77.1814 433.5,66C 440.989,62.5585 448.655,60.0585 456.5,58.5 Z M 461.5,143.5 C 472.833,143.5 484.167,143.5 495.5,143.5C 495.667,160.837 495.5,178.17 495,195.5C 493.717,210.593 486.55,221.76 473.5,229C 451.597,234.461 437.431,226.294 431,204.5C 426.432,185.326 430.265,168.16 442.5,153C 448.115,148.192 454.448,145.026 461.5,143.5 Z"/></g>
<g><path style="opacity:0.965" fill="#fefffe" d="M 644.5,58.5 C 680.927,56.1182 702.094,72.7849 708,108.5C 708.5,152.499 708.667,196.499 708.5,240.5C 695.833,240.5 683.167,240.5 670.5,240.5C 670.667,195.499 670.5,150.499 670,105.5C 667.781,86.45 657.281,75.45 638.5,72.5C 621.381,74.3197 610.881,83.6531 607,100.5C 605.53,147.133 605.03,193.8 605.5,240.5C 592.833,240.5 580.167,240.5 567.5,240.5C 567.5,180.833 567.5,121.167 567.5,61.5C 580.167,61.5 592.833,61.5 605.5,61.5C 605.334,70.1731 605.5,78.8397 606,87.5C 614.267,71.6316 627.101,61.9649 644.5,58.5 Z"/></g>
<g><path style="opacity:0.969" fill="#fefffe" d="M 1191.5,58.5 C 1215.81,55.6571 1236.64,62.6571 1254,79.5C 1260.77,88.0448 1265.1,97.7115 1267,108.5C 1267.5,152.499 1267.67,196.499 1267.5,240.5C 1255.17,240.5 1242.83,240.5 1230.5,240.5C 1230.67,232.493 1230.5,224.493 1230,216.5C 1222.04,231.581 1209.54,240.414 1192.5,243C 1167.95,246.63 1148.12,238.797 1133,219.5C 1122.03,198.012 1123.37,177.346 1137,157.5C 1146.42,147.54 1157.92,141.373 1171.5,139C 1191.16,138.5 1210.83,138.333 1230.5,138.5C 1230.67,125.496 1230.5,112.496 1230,99.5C 1230.27,86.887 1225.77,76.387 1216.5,68C 1199.22,60.0467 1186.72,64.8801 1179,82.5C 1175.86,93.9396 1174.69,105.606 1175.5,117.5C 1162.83,117.5 1150.17,117.5 1137.5,117.5C 1137.48,95.0402 1147.14,78.2068 1166.5,67C 1174.58,63.0302 1182.91,60.1969 1191.5,58.5 Z M 1196.5,143.5 C 1207.83,143.5 1219.17,143.5 1230.5,143.5C 1230.67,160.17 1230.5,176.837 1230,193.5C 1229.3,209.43 1222.13,221.263 1208.5,229C 1188.47,234.766 1174.64,227.932 1167,208.5C 1162.36,191.473 1164.03,175.14 1172,159.5C 1178.02,150.75 1186.18,145.417 1196.5,143.5 Z"/></g>
<g><path style="opacity:0.974" fill="#fefffe" d="M 837.5,61.5 C 850.167,61.5 862.833,61.5 875.5,61.5C 875.5,121.167 875.5,180.833 875.5,240.5C 862.833,240.5 850.167,240.5 837.5,240.5C 837.5,180.833 837.5,121.167 837.5,61.5 Z"/></g>
<g><path style="opacity:0.964" fill="#fefffe" d="M -0.5,279.5 C 28.5019,279.333 57.5019,279.5 86.5,280C 126.82,284.153 148.82,306.32 152.5,346.5C 150.188,380.981 132.188,402.147 98.5,410C 79.2074,411.422 59.8741,411.922 40.5,411.5C 40.5,449.5 40.5,487.5 40.5,525.5C 26.8333,525.5 13.1667,525.5 -0.5,525.5C -0.5,443.5 -0.5,361.5 -0.5,279.5 Z M 40.5,285.5 C 84.774,281.77 108.441,302.104 111.5,346.5C 108.006,390.325 84.3393,410.325 40.5,406.5C 40.5,366.167 40.5,325.833 40.5,285.5 Z"/></g>
<g><path style="opacity:0.959" fill="#fefffe" d="M 569.5,282.5 C 582.5,282.5 595.5,282.5 608.5,282.5C 608.5,298.5 608.5,314.5 608.5,330.5C 615.167,330.5 621.833,330.5 628.5,330.5C 628.5,332.5 628.5,334.5 628.5,336.5C 621.833,336.5 615.167,336.5 608.5,336.5C 608.5,399.5 608.5,462.5 608.5,525.5C 595.5,525.5 582.5,525.5 569.5,525.5C 569.5,462.5 569.5,399.5 569.5,336.5C 562.833,336.5 556.167,336.5 549.5,336.5C 549.5,334.5 549.5,332.5 549.5,330.5C 556.167,330.5 562.833,330.5 569.5,330.5C 569.5,314.5 569.5,298.5 569.5,282.5 Z"/></g>
<g><path style="opacity:0.955" fill="#fefffe" d="M 1436.5,282.5 C 1449.5,282.5 1462.5,282.5 1475.5,282.5C 1475.5,298.833 1475.5,315.167 1475.5,331.5C 1482.17,331.5 1488.83,331.5 1495.5,331.5C 1495.5,333.5 1495.5,335.5 1495.5,337.5C 1488.83,337.5 1482.17,337.5 1475.5,337.5C 1475.5,400.167 1475.5,462.833 1475.5,525.5C 1462.5,525.5 1449.5,525.5 1436.5,525.5C 1436.5,462.833 1436.5,400.167 1436.5,337.5C 1429.83,337.5 1423.17,337.5 1416.5,337.5C 1416.5,335.5 1416.5,333.5 1416.5,331.5C 1423.17,331.5 1429.83,331.5 1436.5,331.5C 1436.5,315.167 1436.5,298.833 1436.5,282.5 Z"/></g>
<g><path style="opacity:0.96" fill="#fefffe" d="M 1735.5,282.5 C 1735.5,363.5 1735.5,444.5 1735.5,525.5C 1722.5,525.5 1709.5,525.5 1696.5,525.5C 1696.5,444.5 1696.5,363.5 1696.5,282.5C 1709.5,282.5 1722.5,282.5 1735.5,282.5 Z"/></g>
<g><path style="opacity:0.955" fill="#fefffe" d="M 254.5,337.5 C 287.854,336.605 315.354,348.605 337,373.5C 343.988,382.81 348.821,393.143 351.5,404.5C 302.833,404.5 254.167,404.5 205.5,404.5C 201.52,429.933 203.354,454.933 211,479.5C 216.497,496.661 227.33,509.161 243.5,517C 267.887,523.87 287.053,516.704 301,495.5C 307.692,483.756 312.192,471.256 314.5,458C 326.829,457.5 339.162,457.333 351.5,457.5C 341.81,492.688 319.144,514.521 283.5,523C 244.23,531.13 211.064,520.63 184,491.5C 164.095,463.402 159.095,432.735 169,399.5C 184.593,361.113 213.093,340.446 254.5,337.5 Z M 252.5,343.5 C 274.022,342.342 290.188,351.009 301,369.5C 306.316,378.949 310.149,388.949 312.5,399.5C 277.167,399.5 241.833,399.5 206.5,399.5C 209.799,379.721 219.133,363.554 234.5,351C 240.266,347.607 246.266,345.107 252.5,343.5 Z"/></g>
<g><path style="opacity:0.98" fill="#fefffe" d="M 465.5,337.5 C 499.592,338.425 519.092,355.759 524,389.5C 524.5,434.832 524.667,480.165 524.5,525.5C 511.833,525.5 499.167,525.5 486.5,525.5C 486.949,478.144 486.449,430.811 485,383.5C 481.869,365.534 471.369,355.201 453.5,352.5C 434.842,355.659 424.008,366.659 421,385.5C 420.5,432.165 420.333,478.832 420.5,525.5C 407.833,525.5 395.167,525.5 382.5,525.5C 382.5,464.167 382.5,402.833 382.5,341.5C 395.167,341.5 407.833,341.5 420.5,341.5C 420.334,350.173 420.5,358.84 421,367.5C 430.366,349.287 445.199,339.287 465.5,337.5 Z"/></g>
<g><path style="opacity:0.955" fill="#fefffe" d="M 734.5,337.5 C 768.71,336.527 796.544,349.194 818,375.5C 823.83,384.161 828.33,393.495 831.5,403.5C 782.837,404.333 734.17,404.833 685.5,405C 680.627,432.453 683.127,459.287 693,485.5C 701.693,506.258 717.193,517.925 739.5,520.5C 755.485,519.094 768.318,512.094 778,499.5C 786.247,486.667 791.413,472.667 793.5,457.5C 806.184,457.168 818.851,457.501 831.5,458.5C 818.941,497.553 792.274,519.72 751.5,525C 717.881,528.686 689.381,518.519 666,494.5C 644.495,466.638 638.495,435.638 648,401.5C 658.661,371.506 679.161,351.672 709.5,342C 717.86,339.831 726.194,338.331 734.5,337.5 Z M 732.5,343.5 C 753.435,342.217 769.269,350.55 780,368.5C 785.542,378.131 789.709,388.298 792.5,399C 757.168,399.5 721.835,399.667 686.5,399.5C 689.389,378.871 699.055,362.371 715.5,350C 721.02,347.11 726.686,344.943 732.5,343.5 Z"/></g>
<g><path style="opacity:0.957" fill="#fefffe" d="M 945.5,337.5 C 980.465,336.409 1008.3,349.743 1029,377.5C 1034.49,385.807 1038.32,394.807 1040.5,404.5C 1027.83,404.5 1015.17,404.5 1002.5,404.5C 999.7,383.732 990.7,366.232 975.5,352C 956.163,339.974 937.496,340.974 919.5,355C 907.468,367.053 899.968,381.553 897,398.5C 891.215,427.411 893.215,455.745 903,483.5C 911.086,505.597 926.752,517.931 950,520.5C 972.705,517.474 988.038,505.14 996,483.5C 999.266,475.437 1001.43,467.104 1002.5,458.5C 1015.17,458.5 1027.83,458.5 1040.5,458.5C 1030.47,492.698 1008.13,514.198 973.5,523C 934.866,530.975 902.033,520.809 875,492.5C 853.01,461.562 848.677,428.228 862,392.5C 879.121,358.016 906.954,339.683 945.5,337.5 Z"/></g>
<g><path style="opacity:0.959" fill="#fefffe" d="M 1154.5,337.5 C 1193.56,336.272 1223.39,351.939 1244,384.5C 1259.62,416.667 1259.29,448.667 1243,480.5C 1226.5,506.848 1202.66,521.681 1171.5,525C 1133.72,528.869 1103.22,516.035 1080,486.5C 1062.29,456.957 1059.29,425.957 1071,393.5C 1088.01,358.743 1115.84,340.077 1154.5,337.5 Z M 1152.5,343.5 C 1170.82,341.77 1185.65,348.104 1197,362.5C 1210.47,383.435 1216.97,406.435 1216.5,431.5C 1216.73,454.221 1211.56,475.554 1201,495.5C 1184.17,520.166 1162.34,525.999 1135.5,513C 1120.32,501.163 1110.82,485.663 1107,466.5C 1101.84,440.339 1102.51,414.339 1109,388.5C 1115.35,365.318 1129.85,350.318 1152.5,343.5 Z"/></g>
<g><path style="opacity:0.962" fill="#fefffe" d="M 1330.5,337.5 C 1351.57,336.572 1369.07,343.906 1383,359.5C 1389.07,368.202 1392.23,377.869 1392.5,388.5C 1379.5,388.5 1366.5,388.5 1353.5,388.5C 1355.09,378.072 1354.59,367.738 1352,357.5C 1345.4,343.079 1335.24,339.913 1321.5,348C 1309.68,366.932 1311.34,384.599 1326.5,401C 1341.5,410.836 1356.83,420.169 1372.5,429C 1392.74,444.364 1399.9,464.53 1394,489.5C 1388,506.832 1376.17,517.998 1358.5,523C 1331,530.335 1307.17,524.168 1287,504.5C 1280.01,495.37 1276.51,485.037 1276.5,473.5C 1289.52,473.168 1302.52,473.501 1315.5,474.5C 1313.16,487.979 1315.33,500.646 1322,512.5C 1330.99,521.027 1340.82,522.194 1351.5,516C 1360.68,505.426 1363.52,493.26 1360,479.5C 1356.47,469.929 1350.63,462.096 1342.5,456C 1328.16,447.835 1314.16,439.168 1300.5,430C 1281.95,414.982 1275.45,395.815 1281,372.5C 1284.51,358.327 1293.01,348.494 1306.5,343C 1314.39,340.059 1322.39,338.226 1330.5,337.5 Z"/></g>
<g><path style="opacity:0.965" fill="#fefffe" d="M 1586.5,337.5 C 1608.7,336.505 1627.53,343.838 1643,359.5C 1649.77,368.045 1654.1,377.712 1656,388.5C 1656.5,434.165 1656.67,479.832 1656.5,525.5C 1643.83,525.5 1631.17,525.5 1618.5,525.5C 1618.67,516.827 1618.5,508.16 1618,499.5C 1609.65,514.603 1596.82,523.103 1579.5,525C 1560.4,527.643 1543.4,522.976 1528.5,511C 1511.41,491.638 1508.25,470.138 1519,446.5C 1529.2,430.135 1544.04,420.968 1563.5,419C 1581.83,418.5 1600.16,418.333 1618.5,418.5C 1618.91,401.458 1618.41,384.458 1617,367.5C 1611.34,346.755 1598.5,339.922 1578.5,347C 1571.6,352.583 1567.1,359.75 1565,368.5C 1563.64,378.109 1563.14,387.776 1563.5,397.5C 1550.5,397.5 1537.5,397.5 1524.5,397.5C 1525.46,371.06 1538.12,352.894 1562.5,343C 1570.45,340.314 1578.45,338.481 1586.5,337.5 Z M 1582.5,424.5 C 1594.5,424.5 1606.5,424.5 1618.5,424.5C 1618.67,442.836 1618.5,461.17 1618,479.5C 1615.32,499.343 1604.16,510.676 1584.5,513.5C 1568.67,511.504 1558.5,502.838 1554,487.5C 1550.07,472.354 1551.4,457.687 1558,443.5C 1563.47,433.507 1571.64,427.174 1582.5,424.5 Z"/></g>
<g><path style="opacity:0.845" fill="#fefffe" d="M 1616.5,571.5 C 1621.49,571.329 1623.33,573.662 1622,578.5C 1618.17,582.333 1614.33,586.167 1610.5,590C 1604.1,592.068 1602.94,590.235 1607,584.5C 1610,580.008 1613.16,575.675 1616.5,571.5 Z"/></g>
<g><path style="opacity:0.945" fill="#fefffe" d="M 549.5,573.5 C 552.59,572.83 554.257,573.997 554.5,577C 553.195,597.821 553.195,618.654 554.5,639.5C 556.747,640.374 559.08,640.708 561.5,640.5C 561.5,642.167 561.5,643.833 561.5,645.5C 553.5,645.5 545.5,645.5 537.5,645.5C 537.5,643.833 537.5,642.167 537.5,640.5C 543.362,641.805 545.862,639.472 545,633.5C 545.5,616.503 545.667,599.503 545.5,582.5C 542.833,582.5 540.167,582.5 537.5,582.5C 537.215,580.712 537.548,579.045 538.5,577.5C 542.332,576.304 545.999,574.97 549.5,573.5 Z"/></g>
<g><path style="opacity:0.878" fill="#fefffe" d="M 642.5,573.5 C 643.833,573.5 645.167,573.5 646.5,573.5C 646.167,595.51 646.5,617.51 647.5,639.5C 649.444,640.189 651.444,640.689 653.5,641C 654.38,642.356 654.714,643.856 654.5,645.5C 646.167,645.5 637.833,645.5 629.5,645.5C 629.286,643.856 629.62,642.356 630.5,641C 632.556,640.689 634.556,640.189 636.5,639.5C 637.5,620.512 637.833,601.512 637.5,582.5C 634.833,582.5 632.167,582.5 629.5,582.5C 629.5,580.833 629.5,579.167 629.5,577.5C 634.049,576.537 638.383,575.204 642.5,573.5 Z"/></g>
<g><path style="opacity:0.867" fill="#fefffe" d="M 1074.5,646.5 C 1072.17,646.5 1069.83,646.5 1067.5,646.5C 1067.79,644.712 1067.45,643.045 1066.5,641.5C 1064.28,643.434 1061.94,645.101 1059.5,646.5C 1055.83,646.5 1052.17,646.5 1048.5,646.5C 1038.52,641.912 1033.52,633.912 1033.5,622.5C 1033.6,613.139 1037.26,605.639 1044.5,600C 1051.85,596.296 1058.85,596.796 1065.5,601.5C 1066.5,595.202 1066.83,588.868 1066.5,582.5C 1063.83,582.5 1061.17,582.5 1058.5,582.5C 1058.21,580.712 1058.55,579.045 1059.5,577.5C 1064.69,575.548 1070.02,574.215 1075.5,573.5C 1075.33,595.503 1075.5,617.503 1076,639.5C 1078.07,640.264 1080.24,640.764 1082.5,641C 1083.38,642.356 1083.71,643.856 1083.5,645.5C 1080.29,645.19 1077.29,645.523 1074.5,646.5 Z M 1055.5,603.5 C 1065.98,605.23 1069.64,611.396 1066.5,622C 1069.5,632.282 1066,638.449 1056,640.5C 1049.55,640.051 1045.55,636.718 1044,630.5C 1042.14,623.295 1042.81,616.295 1046,609.5C 1048.55,606.319 1051.72,604.319 1055.5,603.5 Z"/></g>
<g><path style="opacity:0.891" fill="#fefffe" d="M 454.5,574.5 C 463.515,574.623 465.848,578.623 461.5,586.5C 452.88,589.377 449.38,586.377 451,577.5C 452.145,576.364 453.312,575.364 454.5,574.5 Z"/></g>
<g><path style="opacity:0.882" fill="#fefffe" d="M 42.5,646.5 C 36.5,646.5 30.5,646.5 24.5,646.5C 9.28609,641.749 0.952761,631.416 -0.5,615.5C -0.5,613.833 -0.5,612.167 -0.5,610.5C 2.9083,587.607 16.2416,577.107 39.5,579C 43.3934,579.465 47.0601,580.631 50.5,582.5C 52.1844,587.688 52.851,593.022 52.5,598.5C 50.1667,598.5 47.8333,598.5 45.5,598.5C 45.0022,595.513 44.5022,592.513 44,589.5C 43.6824,587.939 42.8491,586.772 41.5,586C 25.7372,582.634 15.9038,588.801 12,604.5C 10.702,613.468 11.702,622.135 15,630.5C 22.2928,640.627 31.7928,643.461 43.5,639C 44.8702,635.625 45.8702,632.125 46.5,628.5C 48.7427,627.526 51.076,627.192 53.5,627.5C 53.5498,632.552 53.0498,637.552 52,642.5C 48.8606,644.15 45.6939,645.483 42.5,646.5 Z"/></g>
<g><path style="opacity:0.922" fill="#fefffe" d="M 1351.5,580.5 C 1363.5,580.333 1375.5,580.5 1387.5,581C 1400.44,584.695 1405.27,593.195 1402,606.5C 1398.94,613.225 1393.77,617.391 1386.5,619C 1381.18,619.499 1375.84,619.666 1370.5,619.5C 1370.5,626.167 1370.5,632.833 1370.5,639.5C 1373.48,639.963 1376.48,640.296 1379.5,640.5C 1379.5,642.167 1379.5,643.833 1379.5,645.5C 1370.17,645.5 1360.83,645.5 1351.5,645.5C 1351.5,643.833 1351.5,642.167 1351.5,640.5C 1354.54,640.492 1357.54,640.159 1360.5,639.5C 1361.82,621.504 1361.82,603.504 1360.5,585.5C 1357.81,585.664 1355.15,585.497 1352.5,585C 1351.62,583.644 1351.29,582.144 1351.5,580.5 Z M 1370.5,585.5 C 1389.54,583.69 1396.04,591.69 1390,609.5C 1384.32,613.926 1377.82,615.593 1370.5,614.5C 1370.5,604.833 1370.5,595.167 1370.5,585.5 Z"/></g>
<g><path style="opacity:0.858" fill="#fefffe" d="M 164.5,646.5 C 162.167,646.5 159.833,646.5 157.5,646.5C 155.215,644.882 153.215,642.882 151.5,640.5C 149.074,642.941 146.407,644.941 143.5,646.5C 139.833,646.5 136.167,646.5 132.5,646.5C 125.309,642.435 123.143,636.435 126,628.5C 133.075,621.715 141.575,617.715 151.5,616.5C 152.769,605.429 148.103,601.096 137.5,603.5C 137.382,606.688 136.549,609.688 135,612.5C 130.81,615.595 127.643,614.762 125.5,610C 129.056,601.475 135.556,597.308 145,597.5C 154.095,597.202 159.095,601.536 160,610.5C 160.333,619.833 160.667,629.167 161,638.5C 161.388,639.428 162.055,640.095 163,640.5C 165.775,637.605 167.942,637.938 169.5,641.5C 168.118,643.549 166.452,645.215 164.5,646.5 Z M 147.5,621.5 C 148.833,621.5 150.167,621.5 151.5,621.5C 154.501,631.601 151.001,637.601 141,639.5C 132.22,636.491 131.387,631.991 138.5,626C 141.592,624.454 144.592,622.954 147.5,621.5 Z"/></g>
<g><path style="opacity:0.895" fill="#fefffe" d="M 248.5,597.5 C 249.496,597.414 250.329,597.748 251,598.5C 251.988,601.424 252.654,604.424 253,607.5C 257.432,598.135 264.099,595.802 273,600.5C 274.085,608.056 270.919,610.556 263.5,608C 262.5,607.5 261.5,607 260.5,606.5C 257.012,609.47 254.512,613.136 253,617.5C 252.5,624.826 252.334,632.159 252.5,639.5C 255.166,639.933 257.832,640.433 260.5,641C 261.38,642.356 261.714,643.856 261.5,645.5C 253.167,645.5 244.833,645.5 236.5,645.5C 236.286,643.856 236.62,642.356 237.5,641C 239.556,640.689 241.556,640.189 243.5,639.5C 244.761,629.149 244.761,618.816 243.5,608.5C 241.409,608.682 239.409,608.348 237.5,607.5C 236.386,606.277 236.219,604.944 237,603.5C 240.847,601.328 244.681,599.328 248.5,597.5 Z"/></g>
<g><path style="opacity:0.871" fill="#fefffe" d="M 353.5,597.5 C 354.496,597.414 355.329,597.748 356,598.5C 356.182,601.226 356.682,603.893 357.5,606.5C 360.048,602.788 363.382,599.955 367.5,598C 370.594,597.348 373.594,597.682 376.5,599C 378.821,602.123 378.487,605.123 375.5,608C 371.738,608.927 368.238,608.427 365,606.5C 362.315,608.175 360.315,610.508 359,613.5C 357.257,622.109 357.09,630.776 358.5,639.5C 360.747,640.374 363.08,640.708 365.5,640.5C 365.5,642.167 365.5,643.833 365.5,645.5C 357.5,645.5 349.5,645.5 341.5,645.5C 341.5,643.833 341.5,642.167 341.5,640.5C 343.792,640.756 345.959,640.423 348,639.5C 348.5,629.172 348.666,618.839 348.5,608.5C 346.08,608.708 343.747,608.374 341.5,607.5C 340.386,606.277 340.219,604.944 341,603.5C 345.303,601.597 349.47,599.597 353.5,597.5 Z"/></g>
<g><path style="opacity:0.861" fill="#fefffe" d="M 458.5,597.5 C 459.496,597.414 460.329,597.748 461,598.5C 461.333,612.167 461.667,625.833 462,639.5C 463.734,640.249 465.567,640.749 467.5,641C 468.38,642.356 468.714,643.856 468.5,645.5C 460.833,645.5 453.167,645.5 445.5,645.5C 445.5,643.833 445.5,642.167 445.5,640.5C 447.792,640.756 449.959,640.423 452,639.5C 452.5,629.172 452.666,618.839 452.5,608.5C 450.08,608.708 447.747,608.374 445.5,607.5C 444.386,606.277 444.219,604.944 445,603.5C 449.626,601.578 454.126,599.578 458.5,597.5 Z"/></g>
<g><path style="opacity:0.875" fill="#fefffe" d="M 752.5,646.5 C 748.5,646.5 744.5,646.5 740.5,646.5C 727.443,640.388 722.276,630.054 725,615.5C 730.539,599.482 741.373,594.315 757.5,600C 765.545,605.253 769.545,612.753 769.5,622.5C 769.154,634.48 763.487,642.48 752.5,646.5 Z M 746.5,602.5 C 753.842,603.677 758.009,608.01 759,615.5C 761.108,624.907 758.941,633.074 752.5,640C 743.326,642.996 737.492,639.829 735,630.5C 733.874,622.955 734.54,615.621 737,608.5C 739.551,605.319 742.718,603.319 746.5,602.5 Z"/></g>
<g><path style="opacity:0.87" fill="#fefffe" d="M 863.5,646.5 C 858.833,646.5 854.167,646.5 849.5,646.5C 847.35,645.33 845.016,644.33 842.5,643.5C 841.509,639.555 841.176,635.555 841.5,631.5C 843.604,631.201 845.604,631.534 847.5,632.5C 848.482,635.096 849.149,637.762 849.5,640.5C 853.682,641.599 857.848,641.599 862,640.5C 868.356,637.324 868.856,633.491 863.5,629C 858.167,626.667 852.833,624.333 847.5,622C 842.315,617.053 841.149,611.219 844,604.5C 853.074,596.124 862.908,595.29 873.5,602C 872.544,605.394 872.211,608.894 872.5,612.5C 870.5,612.5 868.5,612.5 866.5,612.5C 865.56,603.253 860.893,600.753 852.5,605C 849.499,609.003 850.165,612.336 854.5,615C 860.067,616.783 865.401,619.117 870.5,622C 878.812,633.209 876.479,641.376 863.5,646.5 Z"/></g>
<g><path style="opacity:0.876" fill="#fefffe" d="M 1180.5,646.5 C 1176.17,646.5 1171.83,646.5 1167.5,646.5C 1159.78,643.94 1154.95,638.607 1153,630.5C 1150.38,618.696 1153.55,608.863 1162.5,601C 1170.5,596.333 1178.5,596.333 1186.5,601C 1192,607.054 1194,614.221 1192.5,622.5C 1182.17,622.5 1171.83,622.5 1161.5,622.5C 1163.33,637.491 1171.33,642.324 1185.5,637C 1187,635.5 1188.5,634 1190,632.5C 1192.07,633.628 1192.73,635.294 1192,637.5C 1188.82,641.538 1184.98,644.538 1180.5,646.5 Z M 1173.5,602.5 C 1181.46,603.447 1184.79,607.78 1183.5,615.5C 1182.97,616.192 1182.31,616.692 1181.5,617C 1174.81,617.831 1168.14,617.664 1161.5,616.5C 1162.75,609.272 1166.75,604.606 1173.5,602.5 Z"/></g>
<g><path style="opacity:0.874" fill="#fefffe" d="M 1499.5,646.5 C 1495.5,646.5 1491.5,646.5 1487.5,646.5C 1476.51,642.48 1470.85,634.48 1470.5,622.5C 1470.88,607.622 1478.38,599.289 1493,597.5C 1511.15,600.422 1518.49,611.089 1515,629.5C 1512.74,637.919 1507.58,643.585 1499.5,646.5 Z M 1492.5,602.5 C 1502.39,605.073 1507.06,611.573 1506.5,622C 1506.08,627.447 1504.58,632.614 1502,637.5C 1495.64,643.091 1489.64,642.757 1484,636.5C 1479.38,626.86 1479.38,617.194 1484,607.5C 1486.4,604.892 1489.23,603.225 1492.5,602.5 Z"/></g>
<g><path style="opacity:0.858" fill="#fefffe" d="M 1627.5,646.5 C 1625.17,646.5 1622.83,646.5 1620.5,646.5C 1618.21,644.882 1616.21,642.882 1614.5,640.5C 1612.07,642.941 1609.41,644.941 1606.5,646.5C 1602.83,646.5 1599.17,646.5 1595.5,646.5C 1588.32,642.458 1586.15,636.458 1589,628.5C 1596.11,621.698 1604.61,617.698 1614.5,616.5C 1615.77,605.429 1611.1,601.096 1600.5,603.5C 1600.38,606.688 1599.55,609.688 1598,612.5C 1593.81,615.595 1590.64,614.762 1588.5,610C 1592.06,601.475 1598.56,597.308 1608,597.5C 1617.09,597.202 1622.09,601.536 1623,610.5C 1623.33,619.833 1623.67,629.167 1624,638.5C 1624.39,639.428 1625.05,640.095 1626,640.5C 1628.78,637.605 1630.94,637.938 1632.5,641.5C 1631.12,643.549 1629.45,645.215 1627.5,646.5 Z M 1610.5,621.5 C 1611.83,621.5 1613.17,621.5 1614.5,621.5C 1617.5,631.601 1614,637.601 1604,639.5C 1595.64,636.405 1594.8,631.905 1601.5,626C 1604.59,624.454 1607.59,622.954 1610.5,621.5 Z"/></g>
<g><path style="opacity:0.861" fill="#fefffe" d="M 1735.5,630.5 C 1735.5,631.833 1735.5,633.167 1735.5,634.5C 1734.38,636.741 1733.21,639.075 1732,641.5C 1729.32,643.585 1726.48,645.252 1723.5,646.5C 1718.83,646.5 1714.17,646.5 1709.5,646.5C 1707.22,645.661 1704.89,644.661 1702.5,643.5C 1701.61,639.524 1700.95,635.524 1700.5,631.5C 1702.83,631.5 1705.17,631.5 1707.5,631.5C 1707.68,634.216 1708.18,636.883 1709,639.5C 1714.5,642.288 1719.83,641.954 1725,638.5C 1727.15,634.942 1726.65,631.775 1723.5,629C 1716.49,626.746 1709.99,623.579 1704,619.5C 1698.96,605.606 1703.96,598.273 1719,597.5C 1723.74,597.599 1728.07,598.933 1732,601.5C 1732.5,605.152 1732.67,608.818 1732.5,612.5C 1730.4,612.799 1728.4,612.466 1726.5,611.5C 1726.05,608.724 1725.05,606.224 1723.5,604C 1720.17,603.333 1716.83,603.333 1713.5,604C 1709.99,607.048 1709.66,610.381 1712.5,614C 1717.83,616.333 1723.17,618.667 1728.5,621C 1731.88,623.529 1734.22,626.696 1735.5,630.5 Z"/></g>
</svg>
