<?xml version="1.0" encoding="UTF-8"?>
<svg id="Capa_1" data-name="Capa 1" xmlns="http://www.w3.org/2000/svg" viewBox="0 0 16 16">
  <defs>
    <style>
      .cls-1 {
        fill: #fff;
      }

      .cls-1, .cls-2 {
        stroke-width: 0px;
      }

      .cls-2 {
        fill: #1d1d1b;
      }
    </style>
  </defs>
  <rect class="cls-2" width="16" height="16"/>
  <g>
    <path class="cls-1" d="m9.46,5.6c0,.19.14.42.22.58.22.4.58.7.94.97.39.28.8.56,1.21.81.79.47,1.58,1.08,2.03,1.91.52.94.4,2.05-.04,3-.55,1.2-1.74,1.94-3.05,2.01-.44.02-.87-.01-1.3-.09,0,0,2.42-.65,2.39-3.18,0-.83-.35-1.56-.94-2.13-.26-.25-.57-.45-.85-.68-.18-.15-.6-.42-.6-.69,0-.65-.02-2.5-.02-2.5Z"/>
    <path class="cls-1" d="m9.02.31s-.18,1.16-.99,1.83c-.73.6-1.49,1.15-2.27,1.69-1.24.87-2.45,1.86-3.24,3.18-.74,1.24-.88,2.56-.6,3.94.12.61.4,1.26.7,1.81.69,1.25,1.88,2.06,3.22,2.48,1.04.33,2.14.44,3.23.46,0,0-4.05-1.1-4.01-5.34,0,0-.26-2.29,1.9-3.91,0,0,2.08-1.37,2.07-1.99-.02-1.11,0-4.14,0-4.14Z"/>
    <path class="cls-1" d="m7.13,13.19c.08.08.19.14.31.14.04,0,.09-.01.13.01.05.03.06.09.08.14.04.09.13.15.23.15,0-.12-.01-.26.02-.37.03-.1.09-.2.18-.27.08-.07.19-.09.29-.11.2-.04.4-.04.6-.07.5-.07.73-.29.84-.78.04-.2.06-.41.07-.61.01-.14.03-.28.17-.36.02-.01.03-.03.04-.06-.24-.09-.37-.04-.46.19,0,.02-.02.05-.03.07-.06.19-.12.38-.18.57,0,.02,0,.06-.04.07-.02-.01-.02-.03-.02-.05-.02-.15-.04-.3-.06-.45-.04-.39-.25-.65-.62-.79-.17-.07-.35-.13-.52-.2-.38-.16-.73-.38-.99-.71,0,0-.01-.02-.02-.01-.03.43.2.69.58.85-.04.05-.08.07-.11.1-.06.04-.11.07-.16.13-.11.15-.1.3-.02.46.1.2.26.36.43.5.09.07.18.14.28.22-.06-.02-.1-.03-.13-.05-.29-.11-.54-.28-.7-.56-.15-.25-.13-.51.05-.74.03-.04.03-.06-.01-.09-.2-.14-.31-.33-.33-.58-.01-.19.01-.39,0-.61.04.05.07.09.1.12.29.35.63.62,1.05.8.21.09.42.17.62.25.28.12.5.3.59.6.02.05.03.1.05.16.05-.1.08-.19.13-.27.11-.15.26-.21.43-.14.13.05.24.13.37.21-.28.05-.33.11-.35.37-.02.24-.03.49-.1.72-.08.32-.25.58-.57.71-.13.05-.26.08-.4.1-.25.04-.51.02-.74.11-.11.04-.18.11-.22.22-.03.07-.04.14-.03.21,0,.08.09.21-.03.24-.17.03-.35-.04-.44-.18-.02-.02-.03-.05-.06-.06-.03-.01-.06,0-.09,0-.14,0-.26-.09-.33-.21s-.09-.26-.11-.39c.06.1.12.21.2.29,0,0,0,0,0,0Z"/>
  </g>
</svg>