<?xml version="1.0" standalone="no"?>
<!DOCTYPE svg PUBLIC "-//W3C//DTD SVG 20010904//EN"
 "http://www.w3.org/TR/2001/REC-SVG-20010904/DTD/svg10.dtd">
<svg version="1.0" xmlns="http://www.w3.org/2000/svg"
 width="751.000000pt" height="931.000000pt" viewBox="0 0 751.000000 931.000000"
 preserveAspectRatio="xMidYMid meet">

<g transform="translate(0.000000,931.000000) scale(0.100000,-0.100000)"
fill="#000000" stroke="none">
<path d="M3170 3665 c0 -286 20 -348 153 -476 l69 -67 -35 -51 c-146 -212 -53
-487 227 -670 69 -45 232 -118 242 -108 2 2 -33 32 -78 67 -118 91 -249 226
-296 306 -105 176 -84 298 69 405 34 24 64 50 67 56 2 7 -8 17 -22 23 -52 19
-155 92 -200 140 -71 76 -109 165 -114 270 l-5 85 95 -96 c101 -102 252 -211
387 -279 42 -21 164 -73 271 -115 256 -102 302 -126 378 -198 114 -110 148
-199 182 -472 12 -93 23 -171 26 -174 11 -11 25 25 85 217 89 288 126 342 230
342 49 0 109 -17 109 -30 0 -5 -16 -21 -34 -35 -59 -45 -76 -96 -92 -273 -25
-291 -63 -442 -139 -557 -100 -150 -242 -210 -566 -239 -259 -24 -340 -48
-414 -121 -19 -20 -44 -53 -54 -74 -26 -50 -44 -159 -39 -227 4 -48 2 -54 -14
-54 -50 0 -99 44 -138 123 l-25 52 -75 6 c-42 3 -92 13 -115 24 -56 27 -124
98 -168 175 -20 36 -37 61 -37 57 0 -4 7 -43 16 -85 37 -178 124 -272 253
-272 47 0 51 -2 91 -51 57 -67 126 -102 207 -103 88 -1 101 13 85 92 -17 82
-15 123 8 186 45 120 142 160 445 186 224 19 365 58 475 131 180 121 266 338
295 749 15 211 43 253 190 285 l29 6 -49 32 c-28 17 -83 48 -123 69 -62 32
-83 38 -136 38 -51 0 -70 -5 -108 -29 -53 -34 -78 -67 -119 -156 -16 -36 -31
-65 -33 -65 -2 0 -13 30 -25 68 -11 37 -36 94 -56 127 -84 139 -172 199 -470
319 -316 128 -416 180 -570 301 -79 62 -226 208 -298 295 l-37 45 0 -200z"/>
</g>
</svg>
