<?xml version="1.0" encoding="UTF-8" standalone="no"?>
<!-- Created with Inkscape (http://www.inkscape.org/) -->

<svg
   version="1.1"
   id="svg1"
   width="48"
   height="48"
   viewBox="0 0 48 48"
   xmlns:xlink="http://www.w3.org/1999/xlink"
   xmlns="http://www.w3.org/2000/svg"
   xmlns:svg="http://www.w3.org/2000/svg">
  <defs
     id="defs1">
    <linearGradient
       id="swatch57">
      <stop
         style="stop-color:#ffffff;stop-opacity:1;"
         offset="0"
         id="stop57" />
    </linearGradient>
    <linearGradient
       id="linearGradient46">
      <stop
         style="stop-color:#ff7f00;stop-opacity:1;"
         offset="0"
         id="stop46" />
      <stop
         style="stop-color:#faef25;stop-opacity:0.99999934;"
         offset="1"
         id="stop47" />
    </linearGradient>
    <linearGradient
       xlink:href="#linearGradient46"
       id="linearGradient47"
       x1="782.06006"
       y1="511.94525"
       x2="749.5332"
       y2="487.90369"
       gradientUnits="userSpaceOnUse" />
    <linearGradient
       xlink:href="#linearGradient46"
       id="linearGradient1"
       gradientUnits="userSpaceOnUse"
       x1="782.06006"
       y1="511.94525"
       x2="749.5332"
       y2="487.90369" />
  </defs>
  <g
     id="g1"
     style="display:none"
     transform="matrix(0.04660666,0,0,0.0448302,-1.0430546,-0.01970215)">
    <path
       id="path54"
       style="display:inline;fill:#057fc5;fill-opacity:1;stroke-width:1.58433"
       d="m 539.0332,106.13672 c -9.78266,0 -9.78158,1.9e-4 -9.80664,67.2207 -0.0137,36.97131 -0.61143,68.06996 -1.32812,69.10742 -1.00787,1.45899 -22.80981,1.97585 -96.22656,2.2793 -94.91972,0.39236 -94.91797,0.39167 -94.91797,11.02539 0,10.63371 2.6e-4,10.63301 95.83593,11.39258 95.83524,0.75957 95.83665,0.75881 96.31641,12.38477 0.46321,11.22678 0.32131,11.72739 -4.13086,14.56445 -6.31348,4.02329 -10.54992,5.46443 -14.91601,5.07226 -8.16575,-0.73334 -38.65196,11.45425 -56.44727,22.56446 -5.26146,3.28493 -15.6625,11.24321 -23.11133,17.68554 -12.27054,10.61256 -13.90777,11.56061 -17.41406,10.0918 -6.35133,-2.66053 -18.93881,-11.61297 -18.49805,-13.15625 0.66544,-2.33003 32.09128,-17.1084 47.28906,-22.23828 7.72469,-2.60738 20.73693,-6.32763 28.91602,-8.26563 17.44197,-4.13268 15.7128,-4.68595 -4.48633,-1.4375 -20.50278,3.29728 -50.81167,12.00895 -68.61719,19.72071 -13.24696,5.73737 -15.98134,6.42434 -20.64257,5.19531 -7.86913,-2.07489 -20.38519,-1.72951 -26.81446,0.74023 -3.08855,1.1864 -10.79416,5.26612 -17.12304,9.06446 -6.32904,3.79833 -15.79239,8.64919 -21.03125,10.77929 -9.52533,3.87293 -9.5268,3.87239 -5.5586,7.75586 2.18259,2.13592 6.76445,5.32708 10.17969,7.0918 5.58364,2.88522 8.44676,7.20703 4.77539,7.20703 -4.80463,0 -38.62593,41.88872 -48.82031,60.4668 -12.24358,22.31211 -22.80561,53.04309 -27.54297,80.14062 -2.69683,15.42561 -2.72334,57.06407 -0.0449,72.82813 6.97247,41.04877 22.92418,78.29579 46.98047,109.71484 13.60247,17.76556 41.24461,43.03626 60.63281,55.42774 15.64334,9.99808 45.26399,24.57242 59.45508,29.2539 27.89053,9.20048 65.44778,17.11828 90.05273,18.98438 24.06085,1.825 74.09769,0.66684 93.35742,-2.16016 66.74588,-9.79738 119.27473,-32.20844 160.05469,-68.28906 29.27266,-25.89914 49.33781,-54.1251 63.81445,-89.76172 10.95968,-26.97904 19.54999,-70.45159 9.28907,-47.00977 -6.22826,14.2292 -24.08883,46.69812 -32.96094,59.92188 -4.10983,6.12598 -19.90024,27.87613 -22.27344,30.67969 -1.89441,2.23766 -6.42458,2.62747 -34.61914,2.98437 -17.84091,0.226 -32.90122,-0.0151 -33.46875,-0.53711 -0.56756,-0.5218 1.40986,-7.67834 4.39258,-15.90039 5.03329,-13.87481 5.42884,-16.42252 5.49609,-35.45703 0.0808,-22.76196 -1.06806,-26.89195 -11.72265,-42.20508 -15.43415,-22.18198 -48.698,-40.30228 -116.27737,-63.35156 -125.17785,-42.69461 -161.96251,-59.93262 -195.09765,-91.41797 -13.92137,-13.22808 -21.72883,-24.5043 -28.75586,-41.52539 -8.15998,-19.76604 -15.31854,-27.71283 -30.52344,-33.88086 -9.01854,-3.65839 -9.01854,-3.65639 -4.13086,-7.88086 18.13279,-15.67317 46.35669,-15.25315 70.98047,1.0586 4.54395,3.01008 12.2104,6.65719 17.03906,8.10351 22.62207,6.77575 52.87985,-4.81602 85.32617,-32.68554 17.90622,-15.38038 24.09772,-19.93281 25.79102,-18.97071 0.85437,0.48547 1.55273,4.26052 1.55273,8.38867 0,4.12825 0.73188,7.50586 1.62696,7.50586 3.32593,0 18.0715,-9.38155 19.00781,-12.09375 0.53406,-1.54669 0.79205,-5.24575 0.57422,-8.21875 -0.21777,-2.97308 0.14189,-5.90004 0.80078,-6.50586 0.65891,-0.60577 7.31644,-2.70485 14.79297,-4.66211 16.50383,-4.32036 37.81494,-13.45485 50.5625,-21.67578 8.29347,-5.34848 10.56666,-6.08984 18.70508,-6.08984 9.24326,0 9.28638,-0.0216 19.75585,-9.9707 5.77105,-5.48403 10.72345,-10.56538 11.00586,-11.29102 0.28234,-0.72562 -1.84332,-1.53516 -4.72265,-1.80078 -5.23499,-0.4829 -5.23317,-0.48294 -1.27735,-4.38867 2.17571,-2.14822 6.8786,-7.18668 10.45313,-11.19727 6.49925,-7.2918 6.50053,-7.29415 7.91016,-2.29297 1.65684,5.87837 -1.09228,22.42521 -5.03516,30.3086 -4.17076,8.33942 -11.6653,16.40348 -21.36328,22.99023 -8.75383,5.94526 -27.6297,14.98525 -31.30078,14.98828 -1.02471,6.2e-4 -2.87899,1.12426 -4.11914,2.49805 -1.98248,2.19609 -1.85697,2.3924 1.03711,1.625 16.24266,-4.3069 40.50385,-9.15391 41.45312,-8.28125 2.32911,2.14135 -10.09159,21.33813 -20.48242,31.65625 -8.90365,8.84136 -13.37074,11.78828 -28,18.47461 -17.40609,7.95561 -17.40632,7.95468 -36.58984,8.25781 -10.55112,0.16672 -19.92717,0.36578 -20.83594,0.44141 -0.90879,0.0758 0.57828,1.30763 3.30468,2.73633 8.07557,4.23175 44.14975,3.68113 60.07227,-0.91602 6.68465,-1.93001 12.51353,-3.17973 12.95117,-2.77734 0.43778,0.40229 -0.0468,4.45836 -1.07617,9.01562 -3.60887,15.98274 -18.63297,31.91414 -39.49414,41.875 -19.21202,9.1733 -30.32521,11.43015 -56.74219,11.52539 -12.4496,0.0449 -22.11579,0.52672 -21.48047,1.07227 0.63546,0.54557 7.10468,2.52888 14.375,4.4082 17.71745,4.57973 45.40284,4.9502 58.65821,0.7832 25.34951,-7.9689 43.65407,-27.58507 51.26367,-54.93945 1.79522,-6.4534 3.26367,-13.41251 3.26367,-15.46484 0,-2.42928 3.26187,-6.97426 9.35156,-13.02149 11.84157,-11.7591 16.96895,-21.92306 18.27344,-36.22851 0.79004,-8.66328 1.97431,-12.27653 5.4668,-16.70899 2.45083,-3.11064 5.31572,-7.56489 6.36523,-9.89648 1.90828,-4.23945 1.90779,-4.24024 32.86133,-4.24024 30.95369,0 30.95313,9e-4 30.95312,-10.63281 0,-10.63372 1.3e-4,-10.63368 -28.37695,-11.04883 -28.37523,-0.41516 -28.37595,-0.41609 -29.41406,-10.63476 -1.42221,-13.99778 -2.24727,-17.05469 -4.61719,-17.05469 -1.11963,0 -10.04869,6.15227 -19.84375,13.67187 -17.80919,13.67194 -17.81218,13.67383 -63.20312,13.67383 -24.9649,0 -45.39635,-0.514 -45.40625,-1.14062 -0.009,-0.62665 -0.0632,-29.84999 -0.11719,-64.94141 -0.0546,-35.09136 -0.47637,-65.68279 -0.93945,-67.98047 -0.80608,-3.99977 -1.26058,-4.17773 -10.62696,-4.17773 z m 38.82422,161.15625 c 26.57495,0.13065 26.57372,0.13224 16.39649,4.50195 -5.59736,2.40334 -15.95974,5.76245 -23.0293,7.46485 -19.1728,4.61697 -20.04135,4.45402 -20.75977,-3.84961 -0.33027,-3.81874 -0.28083,-7.2349 0.10938,-7.59375 0.39039,-0.35883 12.66683,-0.59534 27.2832,-0.52344 z m -66.86328,33.66797 c 0.67525,-5.8e-4 1.15232,0.10359 1.39453,0.32617 2.17658,2.00102 -43.39171,41.22719 -54.5664,46.97266 -10.96538,5.63777 -27.11741,9.17425 -25.8418,5.65625 1.1699,-3.22686 18.48705,-20.5834 28.2793,-28.3418 5.22184,-4.13731 14.68985,-10.32783 21.03906,-13.75977 9.0526,-4.89325 20.92711,-9.36959 27.11523,-10.55078 1.03139,-0.19688 1.90483,-0.30216 2.58008,-0.30273 z M 335.0625,382.50586 c 1.53408,0.093 2.82029,2.14026 5.39258,6.23633 2.82949,4.50577 4.78569,8.73128 4.34375,9.38867 -1.43154,2.12951 -23.74219,1.42824 -23.74219,-0.74609 0,-1.06725 3.2088,-5.29082 7.12891,-9.38672 3.56389,-3.72353 5.34293,-5.58536 6.87695,-5.49219 z m -3.66602,33.58789 c 26.83699,0.0579 26.8369,0.0568 31.38086,6.0957 2.49916,3.32152 4.54493,6.72483 4.54493,7.5586 0,0.83378 -2.52179,9.19775 -5.60547,18.58789 -6.09951,18.57442 -13.38482,54.62539 -15.41992,76.31836 -1.28251,13.67194 -1.28219,13.67088 -41.58594,14.07812 -40.30366,0.40744 -40.3023,0.40784 -39.4043,-12.15234 1.09181,-15.27023 6.49211,-39.95965 12.17188,-55.64453 2.3109,-6.38144 9.35047,-21.34598 15.64257,-33.25196 11.43998,-21.64731 11.43858,-21.6475 38.27539,-21.58984 z m 53.54297,33.36328 c 0.53179,0 8.08242,6.25489 16.78125,13.90039 17.29943,15.20489 39.2328,29.19722 62.28321,39.73438 14.70748,6.72338 54.79662,20.80273 59.23437,20.80273 3.80739,0 6.27085,4.05146 5.71289,9.39649 -0.52593,5.03612 -0.52702,5.03522 -79.42578,5.42968 -78.89875,0.39445 -78.89844,0.39577 -78.89844,-5.5332 0,-21.28828 10.67343,-83.73047 14.3125,-83.73047 z m 167.1875,83.41016 c 0.1931,-0.006 0.40434,-0.002 0.63477,0.0117 1.84325,0.10925 4.94784,0.83743 10.43945,2.25195 6.77257,1.74448 12.31641,3.68949 12.31641,4.32226 0,0.63276 -4.69055,1.1504 -10.42383,1.1504 -11.16799,0 -16.83591,-2.33406 -15.19727,-6.25977 0.38818,-0.9301 0.87877,-1.43732 2.23047,-1.47656 z m 38.38086,22.92773 c 39.7753,0 39.77587,10e-4 58.01172,8.35938 27.24615,12.48782 39.90588,22.40526 47.24414,37.00976 3.72532,7.41448 4.02785,9.54073 3.33985,23.54688 -0.66292,13.49247 -1.77721,18.11862 -8.99414,37.42187 -8.23536,22.02703 -8.23524,22.02848 -73.80665,22.42578 -36.06419,0.2184 -65.62821,-0.1236 -65.69726,-0.75976 -0.0983,-0.9057 -0.007,-118.2276 0.0996,-126.10547 0.0195,-1.46576 9.09747,-1.89844 39.80273,-1.89844 z m -285.96875,0.0254 c 19.85639,0 39.72702,0.37821 40.23047,1.12696 0.42615,0.63402 1.62159,9.35023 2.65625,19.36914 4.1389,40.07423 9.94128,64.72736 22.16211,94.17187 3.76948,9.08183 5.07426,14.00785 3.89453,14.68555 -1.96239,1.1171 -56.00973,1.31341 -61.89453,0.22461 -4.12116,-0.7624 -7.10186,-4.31922 -15.67773,-18.70703 -11.7046,-19.63679 -21.56886,-44.80251 -26.79883,-68.36133 -2.72228,-12.26313 -5.83073,-39.52739 -4.71875,-41.39453 0.44602,-0.74854 20.28997,-1.11858 40.14648,-1.11524 z m 145.8125,0.33985 c 78.07254,0.39458 78.07422,0.39466 78.07422,64.19726 0,63.80242 -3.3e-4,63.80397 -65.55469,64.20117 -65.5544,0.397 -65.5566,0.3968 -68.80859,-7.5957 -9.41076,-23.12963 -16.69458,-52.60095 -19.99609,-80.91016 -1.40243,-12.02563 -2.47084,-32.8994 -1.96485,-38.37304 0.14012,-1.51593 16.41651,-1.83231 78.25,-1.51953 z M 611.04297,703.1504 c 51.86402,0 60.31055,0.31131 60.31055,2.22461 0,2.6872 -15.58904,26.57007 -25.1504,38.53125 -21.41959,26.79594 -47.49096,44.23317 -75.64257,50.59375 -13.43048,3.0346 -17.03005,3.38582 -18.72852,1.82422 -0.60581,-0.5569 -1.09961,-21.74981 -1.09961,-47.09375 0,-46.07942 5.7e-4,-46.08008 60.31055,-46.08008 z m 103.47851,0 c 17.62422,-0.3672 39.44922,0.9068 39.44922,2.89649 0,1.89319 -30.66373,30.27592 -40.48242,37.4707 -29.92755,21.93016 -65.02306,37.99951 -102.5625,46.9668 -8.76891,2.09459 -18.64856,3.7969 -21.95703,3.7832 -5.46807,-0.023 -4.81281,-0.47406 7.20313,-4.97266 7.27032,-2.7219 18.79542,-8.25002 25.61132,-12.2832 17.46329,-10.33358 46.04419,-37.56909 59.48438,-56.68555 10.46563,-14.88566 10.92462,-15.29966 17.99219,-16.22656 3.97725,-0.5215 9.38699,-0.82682 15.26171,-0.94922 z M 466.875,703.50977 c 59.89689,0.3987 59.89844,0.39786 59.89844,46.73046 0,53.2079 1.59469,49.49515 -19.00196,44.22657 -22.4207,-5.7355 -40.67146,-15.96294 -58.6621,-32.88282 -15.14092,-14.24016 -42.13086,-50.5918 -42.13086,-56.74218 0,-1.2731 15.88643,-1.62493 59.89648,-1.33203 z m -94.25391,0.68359 c 5.6524,0.0412 9.64417,0.18125 10.61133,0.4082 2.15158,0.505 8.21902,7.30204 15.63477,17.51172 14.07787,19.38186 32.18044,37.47263 48.59375,48.56641 15.60762,10.54918 22.31004,13.98502 38.83008,19.9082 29.02822,10.40798 -12.83739,3.03903 -45.43946,-7.99805 C 403.90904,770.08328 367.63945,748.436 341.12305,723.06836 320.97954,703.7976 320.23773,705.0666 352.04688,704.375 c 7.60876,-0.1654 14.92182,-0.22289 20.57421,-0.18164 z" />
    <path
       id="path52"
       style="display:inline;fill:#e4bc44;fill-opacity:1;stroke-width:1.58433"
       d="m 473.08398,809.48633 c -6.19278,0 -35.68478,2.36432 -65.53515,5.2539 -29.85027,2.8895 -64.35881,5.90317 -76.68555,6.69727 -14.70931,0.9476 -24.64769,2.35149 -28.91601,4.08789 -5.2018,2.1162 -5.85504,2.78761 -3.26954,3.34961 4.28023,0.9303 54.5921,-1.93328 114.91016,-6.53906 60.87574,-4.6482 68.06269,-4.68383 80.25391,-0.39453 11.64003,4.09528 24.94035,15.54222 31.15234,26.8125 4.01342,7.28138 4.36135,9.29267 3.91797,22.71875 -0.48646,14.72896 -0.48636,14.72697 6.78125,15.20507 7.26751,0.4782 7.26713,0.48045 6.14062,-13.24023 -1.05814,-12.88748 -0.86139,-14.20821 3.25391,-21.74609 9.42302,-17.25978 21.06931,-26.29242 39.78125,-30.85352 8.77391,-2.1388 12.50185,-2.12052 41.04492,0.20508 17.26689,1.4067 22.87726,1.63014 23.70117,1.74414 1.76343,0.2434 31.279,2.15747 33.375,2.32617 11.38411,0.9169 27.03817,2.37003 39.99805,3.23633 14.96187,0.9998 23.29893,1.33354 35.11328,1.83984 21.4802,0.9204 21.48039,0.91909 11.56641,-3.84179 -8.94676,-4.2964 -12.09033,-4.90432 -32.2207,-6.22852 -24.84499,-1.634 -23.91381,-1.55887 -88.40039,-7.00195 -25.52806,-2.1548 -50.70936,-3.53437 -56.17969,-3.07617 -22.65151,1.65388 -38.71218,12.26812 -51.62305,28.6875 -2.29309,3.13308 -5.00033,5.66324 -6.01562,5.62304 -1.01516,-0.04 -4.44764,-3.8451 -7.62696,-8.45898 -11.44257,-16.60448 -31.67823,-26.40625 -54.51758,-26.40625 z m -26.16796,15.55664 c -11.41184,0.0957 -26.82581,1.53048 -50.67774,4.18164 -28.74634,3.1953 -72.25874,7.03327 -95.83594,8.45117 -12.95803,0.7794 -25.61132,3.92725 -25.61132,6.37305 0,1.0748 47.10831,-0.56285 72.70312,-2.52735 11.35976,-0.87178 24.74379,-1.89709 29.74219,-2.27929 82.18427,-6.2856 85.26503,-6.2377 100.89648,1.58398 18.3767,9.19538 30.6135,27.69016 32.39844,48.97071 1.03625,12.35457 1.0343,12.35546 5.86523,12.35546 4.83103,0 4.83023,-10e-4 3.8086,-8.73632 -3.48755,-29.81764 -18.25142,-52.81781 -39.69141,-61.83399 -9.65892,-4.06188 -17.10039,-6.16705 -28.93945,-6.49805 -1.47987,-0.0414 -3.02794,-0.0547 -4.6582,-0.041 z m 175.92578,0.22851 v 0.002 c -5.0518,0.036 -8.66465,0.38447 -11.74805,1.04687 -33.08928,7.1085 -54.53415,31.30679 -58.11328,65.57813 -1.07089,10.25388 -1.07151,10.2539 4.02148,10.2539 4.83097,0 5.14585,-0.37231 6.11524,-7.21679 2.98885,-21.10246 8.45333,-33.75939 19.09375,-44.22657 17.25678,-16.97596 33.57885,-19.17861 91.62109,-12.36523 22.21555,2.6078 98.57843,7.60484 115.02735,7.52734 15.50521,-0.073 15.50755,-0.0739 5.66406,-4.74218 -9.45147,-4.482 -11.22934,-4.75282 -44.61328,-6.8125 -19.12335,-1.1799 -12.08637,-1.07477 -37.14454,-2.66407 -28.99462,-1.83888 15.14725,-0.0354 -69.55078,-5.56445 -8.83226,-0.5765 -15.32128,-0.85271 -20.37304,-0.81641 z m 7.36523,17.34375 c -1.5872,0.0142 -3.08941,0.0535 -4.51562,0.11915 -11.40958,0.52539 -17.99585,2.7151 -24.97657,6.80468 -7.55746,4.4276 -20.52109,16.89838 -23.95117,23.03906 -3.5654,6.3827 -6.56022,20.90639 -5.27734,25.60547 0.84003,3.0772 2.10479,3.96875 5.63086,3.96875 4.35943,0 4.5864,-0.3803 5.45117,-9.14648 1.42363,-14.43418 5.84619,-23.72876 14.82226,-31.14844 13.73603,-11.35398 15.61932,-11.45366 98.74805,-5.32226 73.21132,5.40018 143.75391,8.8363 143.75391,7.0039 0,-0.4578 -3.53289,-2.46162 -7.84961,-4.45312 -6.84973,-3.1603 -11.10727,-3.75244 -33.45899,-4.64844 -25.11126,-1.0067 -87.92262,-5.51132 -118.96875,-8.5332 -22.99396,-2.23825 -38.29778,-3.38837 -49.4082,-3.28907 z m -188.41211,0.0937 c -9.35099,0.21259 -21.85775,1.10284 -39.77344,2.59766 -64.35972,5.3694 -105.3626,8.27676 -130.79101,9.27734 -20.18954,0.7944 -23.38897,1.30815 -30.45508,4.86133 -13.07245,6.5736 -11.54819,7.66202 9.54297,6.82422 37.61692,-1.4943 94.94683,-5.51298 127.74414,-8.95508 11.81417,-1.2399 33.15804,-3.07432 47.42969,-4.07422 23.20614,-1.62588 26.87368,-1.54837 34.69922,0.72461 18.27577,5.3082 31.05364,21.57772 31.05664,39.54688 0,8.83098 -8.9e-4,8.83167 5.36914,8.35547 4.96603,-0.4402 5.41374,-0.9317 5.93164,-6.55078 0.64107,-6.9564 -2.1361,-19.89862 -5.66602,-26.4043 -3.8363,-7.06998 -15.70812,-17.49815 -24.21093,-21.26953 -6.7784,-3.0067 -12.49777,-4.58767 -22.49415,-4.91797 -2.49903,-0.0826 -5.26581,-0.0865 -8.38281,-0.0156 z m 185.26758,16.92969 c -9.86432,-0.024 -20.78029,3.88857 -26.07227,9.34375 -5.05026,5.2053 -8.94921,16.2065 -8.94921,25.2461 0,7.63728 0.16611,7.92382 4.55664,7.92382 4.33766,0 4.53255,-0.30799 4.05078,-6.45507 -0.68355,-8.7218 3.88108,-16.00179 13.49609,-21.50977 7.71035,-4.4168 7.70964,-4.41296 41.95899,-2.38086 18.83724,1.1176 36.85447,2.15163 40.03515,2.29883 3.18083,0.1472 16.56499,1.07179 29.74219,2.05859 40.47995,3.0306 133.82695,9.28894 149.53711,10.02344 14.44412,0.6755 14.76119,0.61734 11.0918,-1.97266 -2.07801,-1.46668 -8.02634,-4.14302 -13.21875,-5.94922 -9.41828,-3.27608 -27.82318,-4.83091 -149.88868,-12.65429 -13.63166,-0.8737 -38.91289,-2.56993 -56.17968,-3.76953 -17.26689,-1.1997 -35.33915,-2.19103 -40.16016,-2.20313 z m -183.61719,0.22071 c -2.39785,0.0241 -5.03566,0.0952 -7.95117,0.20898 -7.77468,0.3032 -17.53269,0.91498 -30.01367,1.77148 -17.80678,1.2223 -49.47691,3.29833 -70.37891,4.61133 -20.90206,1.3131 -45.43957,3.01295 -54.52734,3.77735 -9.08776,0.76428 -28.79219,2.21195 -43.78711,3.21875 -26.96253,1.81038 -35.69122,3.71482 -45.39453,9.91211 -3.01254,1.92409 -2.71859,2.89928 2.98828,2.08398 34.7539,-4.9645 50.32419,-4.01426 87.99219,-5.72266 l 55.18359,-2.50195 c 22.84252,-1.036 43.2239,-3.40399 68.41406,-4.77539 50.57048,-2.7529 51.15402,-2.6943 60.4043,6.08008 5.55749,5.27158 9.2387,15.62182 7.42383,20.8789 -0.87852,2.54483 -0.34607,2.90853 3.66601,2.48633 4.26027,-0.4483 4.74269,-1.10571 5.21094,-7.09961 0.76004,-9.72838 -4.06621,-22.23661 -10.62305,-27.52929 -5.80666,-4.6873 -10.3465,-6.90008 -22.09375,-7.33008 -1.95789,-0.0717 -4.11581,-0.0945 -6.51367,-0.0703 z" />
    <path
       id="path32"
       style="display:inline;fill:url(#linearGradient1);fill-opacity:1;stroke-width:1.58433"
       d="m 763.05859,241.37695 c -0.90885,0.01 -3.44418,5.29954 -5.63281,11.75977 -2.18872,6.46013 -6.01513,15.5082 -8.50586,20.10351 -3.77068,6.95684 -16.9481,25.05323 -22.76172,31.26172 -0.84547,0.90284 -4.53659,6.71502 -8.20312,12.91407 -8.12009,13.7283 -15.81281,33.56428 -19.49414,50.26757 -6.24069,28.31521 2.36257,56.39581 25.42578,82.9961 8.13507,9.38273 8.8021,6.42073 0.88086,-3.90821 -13.76036,-17.94313 -21.21258,-35.99172 -23.09375,-55.92187 -2.5537,-27.05568 11.88129,-63.87628 33.30469,-84.94922 11.1454,-10.9632 20.62104,-26.44559 24.87109,-40.63672 1.43895,-4.80421 3.16885,-8.73437 3.8418,-8.73437 5.46467,0 15.45409,16.20759 19.41797,31.50586 7.28844,28.13124 -0.26319,59.94401 -20.32813,85.62109 -6.96981,8.91937 -6.56166,11.16002 0.69727,3.82617 31.73461,-32.06212 39.8851,-69.93039 22.4414,-104.24219 -5.36139,-10.54574 -20.66991,-31.88346 -22.86133,-31.86328 z m -69.45312,80.91407 c -1.61311,0.8109 -8.30008,13.58937 -13.96094,26.82031 -4.47985,10.47067 -12.49166,40.54396 -13.98437,52.49414 -3.30164,26.43118 15.94698,60.66418 49.54101,88.10742 31.09316,25.40025 53.24827,49.0863 61.10156,65.32227 10.66622,22.05127 9.59849,44.46539 -3.34375,70.21875 -3.17387,6.31562 -5.76867,11.89924 -5.76367,12.4082 0.0142,1.81867 19.28629,-18.73761 34.41211,-36.70899 19.27342,-22.8988 30.29397,-41.59643 39.26563,-66.60742 4.07399,-11.35743 4.58096,-15.0252 4.68554,-33.99804 0.0873,-15.81589 -0.62058,-23.72104 -2.76171,-30.83985 -4.76611,-15.84624 -12.85811,-32.05936 -22.85547,-45.79297 -10.41134,-14.30252 -35.20041,-39.58007 -38.81641,-39.58007 -3.24929,0 -15.3809,14.50306 -19.85742,23.74218 -12.38907,25.56888 -7.24367,56.23844 14.24804,84.95703 2.62,3.50102 4.33153,6.76562 3.80469,7.25 -1.29176,1.18763 -21.9863,-8.49986 -32.53711,-15.23046 -26.30387,-16.7795 -39.63607,-29.7783 -51.88672,-50.5879 -10.27877,-17.46012 -13.62587,-29.8023 -13.64257,-50.29492 -0.0142,-18.12791 2.16931,-29.57042 9.48828,-49.70312 2.22495,-6.1205 3.62666,-11.50819 3.11719,-11.97656 -0.0606,-0.0557 -0.14637,-0.0541 -0.25391,0 z m -19.96094,145.49023 c -2.43615,-0.12459 -7.25005,22.55364 -7.24805,34.14453 0,9.3135 3.35181,24.17368 7.00977,31.08203 2.76585,5.22347 9.08685,13.2664 16.12305,20.50977 15.88118,16.34825 28.75213,36.10659 35.68554,54.7832 5.69667,15.34601 5.98896,30.85572 0.92969,49.27539 -1.95061,7.10182 -3.54964,13.76802 -3.55664,14.8125 -0.0184,3.04891 1.25839,2.31612 9.27344,-5.31836 31.4497,-29.95622 47.01869,-74.05431 35.47265,-100.46679 -8.15547,-18.65635 -17.34508,-29.08975 -49.80664,-56.55079 -9.49162,-8.02955 -22.83443,-20.80419 -29.65039,-28.38867 -6.81594,-7.58446 -13.22082,-13.83121 -14.23242,-13.88281 z" />
  </g>
  <g
     id="g76"
     style="display:inline"
     transform="matrix(0.04660666,0,0,0.0448302,-1.0430546,-0.01970215)">
    <path
       id="path74"
       style="display:inline;fill:#057fc5;fill-opacity:1;stroke-width:1.58433"
       d="m 539.0332,106.13672 c -9.78266,0 -9.78158,1.9e-4 -9.80664,67.2207 -0.0137,36.97131 -0.61143,68.06996 -1.32812,69.10742 -1.00787,1.45899 -22.80981,1.97585 -96.22656,2.2793 -94.91972,0.39236 -94.91797,0.39167 -94.91797,11.02539 0,10.63371 2.6e-4,10.63301 95.83593,11.39258 95.83524,0.75957 95.83665,0.75881 96.31641,12.38477 0.46321,11.22678 0.32131,11.72739 -4.13086,14.56445 -6.31348,4.02329 -10.54992,5.46443 -14.91601,5.07226 -8.16575,-0.73334 -38.65196,11.45425 -56.44727,22.56446 -5.26146,3.28493 -15.6625,11.24321 -23.11133,17.68554 -12.27054,10.61256 -13.90777,11.56061 -17.41406,10.0918 -6.35133,-2.66053 -18.93881,-11.61297 -18.49805,-13.15625 0.66544,-2.33003 32.09128,-17.1084 47.28906,-22.23828 7.72469,-2.60738 20.73693,-6.32763 28.91602,-8.26563 17.44197,-4.13268 15.7128,-4.68595 -4.48633,-1.4375 -20.50278,3.29728 -50.81167,12.00895 -68.61719,19.72071 -13.24696,5.73737 -15.98134,6.42434 -20.64257,5.19531 -7.86913,-2.07489 -20.38519,-1.72951 -26.81446,0.74023 -3.08855,1.1864 -10.79416,5.26612 -17.12304,9.06446 -6.32904,3.79833 -15.79239,8.64919 -21.03125,10.77929 -9.52533,3.87293 -9.5268,3.87239 -5.5586,7.75586 2.18259,2.13592 6.76445,5.32708 10.17969,7.0918 5.58364,2.88522 8.44676,7.20703 4.77539,7.20703 -4.80463,0 -38.62593,41.88872 -48.82031,60.4668 -12.24358,22.31211 -22.80561,53.04309 -27.54297,80.14062 -2.69683,15.42561 -2.72334,57.06407 -0.0449,72.82813 6.97247,41.04877 22.92418,78.29579 46.98047,109.71484 13.60247,17.76556 41.24461,43.03626 60.63281,55.42774 15.64334,9.99808 45.26399,24.57242 59.45508,29.2539 27.89053,9.20048 65.44778,17.11828 90.05273,18.98438 24.06085,1.825 74.09769,0.66684 93.35742,-2.16016 66.74588,-9.79738 119.27473,-32.20844 160.05469,-68.28906 29.27266,-25.89914 49.33781,-54.1251 63.81445,-89.76172 10.95968,-26.97904 19.54999,-70.45159 9.28907,-47.00977 -6.22826,14.2292 -24.08883,46.69812 -32.96094,59.92188 -4.10983,6.12598 -19.90024,27.87613 -22.27344,30.67969 -1.89441,2.23766 -6.42458,2.62747 -34.61914,2.98437 -17.84091,0.226 -32.90122,-0.0151 -33.46875,-0.53711 -0.56756,-0.5218 1.40986,-7.67834 4.39258,-15.90039 5.03329,-13.87481 5.42884,-16.42252 5.49609,-35.45703 0.0808,-22.76196 -1.06806,-26.89195 -11.72265,-42.20508 -15.43415,-22.18198 -48.698,-40.30228 -116.27737,-63.35156 -125.17785,-42.69461 -161.96251,-59.93262 -195.09765,-91.41797 -13.92137,-13.22808 -21.72883,-24.5043 -28.75586,-41.52539 -8.15998,-19.76604 -15.31854,-27.71283 -30.52344,-33.88086 -9.01854,-3.65839 -9.01854,-3.65639 -4.13086,-7.88086 18.13279,-15.67317 46.35669,-15.25315 70.98047,1.0586 4.54395,3.01008 12.2104,6.65719 17.03906,8.10351 22.62207,6.77575 52.87985,-4.81602 85.32617,-32.68554 17.90622,-15.38038 24.09772,-19.93281 25.79102,-18.97071 0.85437,0.48547 1.55273,4.26052 1.55273,8.38867 0,4.12825 0.73188,7.50586 1.62696,7.50586 3.32593,0 18.0715,-9.38155 19.00781,-12.09375 0.53406,-1.54669 0.79205,-5.24575 0.57422,-8.21875 -0.21777,-2.97308 0.14189,-5.90004 0.80078,-6.50586 0.65891,-0.60577 7.31644,-2.70485 14.79297,-4.66211 16.50383,-4.32036 37.81494,-13.45485 50.5625,-21.67578 8.29347,-5.34848 10.56666,-6.08984 18.70508,-6.08984 9.24326,0 9.28638,-0.0216 19.75585,-9.9707 5.77105,-5.48403 10.72345,-10.56538 11.00586,-11.29102 0.28234,-0.72562 -1.84332,-1.53516 -4.72265,-1.80078 -5.23499,-0.4829 -5.23317,-0.48294 -1.27735,-4.38867 2.17571,-2.14822 6.8786,-7.18668 10.45313,-11.19727 6.49925,-7.2918 6.50053,-7.29415 7.91016,-2.29297 1.65684,5.87837 -1.09228,22.42521 -5.03516,30.3086 -4.17076,8.33942 -11.6653,16.40348 -21.36328,22.99023 -8.75383,5.94526 -27.6297,14.98525 -31.30078,14.98828 -1.02471,6.2e-4 -2.87899,1.12426 -4.11914,2.49805 -1.98248,2.19609 -1.85697,2.3924 1.03711,1.625 16.24266,-4.3069 40.50385,-9.15391 41.45312,-8.28125 2.32911,2.14135 -10.09159,21.33813 -20.48242,31.65625 -8.90365,8.84136 -13.37074,11.78828 -28,18.47461 -17.40609,7.95561 -17.40632,7.95468 -36.58984,8.25781 -10.55112,0.16672 -19.92717,0.36578 -20.83594,0.44141 -0.90879,0.0758 0.57828,1.30763 3.30468,2.73633 8.07557,4.23175 44.14975,3.68113 60.07227,-0.91602 6.68465,-1.93001 12.51353,-3.17973 12.95117,-2.77734 0.43778,0.40229 -0.0468,4.45836 -1.07617,9.01562 -3.60887,15.98274 -18.63297,31.91414 -39.49414,41.875 -19.21202,9.1733 -30.32521,11.43015 -56.74219,11.52539 -12.4496,0.0449 -22.11579,0.52672 -21.48047,1.07227 0.63546,0.54557 7.10468,2.52888 14.375,4.4082 17.71745,4.57973 45.40284,4.9502 58.65821,0.7832 25.34951,-7.9689 43.65407,-27.58507 51.26367,-54.93945 1.79522,-6.4534 3.26367,-13.41251 3.26367,-15.46484 0,-2.42928 3.26187,-6.97426 9.35156,-13.02149 11.84157,-11.7591 16.96895,-21.92306 18.27344,-36.22851 0.79004,-8.66328 1.97431,-12.27653 5.4668,-16.70899 2.45083,-3.11064 5.31572,-7.56489 6.36523,-9.89648 1.90828,-4.23945 1.90779,-4.24024 32.86133,-4.24024 30.95369,0 30.95313,9e-4 30.95312,-10.63281 0,-10.63372 1.3e-4,-10.63368 -28.37695,-11.04883 -28.37523,-0.41516 -28.37595,-0.41609 -29.41406,-10.63476 -1.42221,-13.99778 -2.24727,-17.05469 -4.61719,-17.05469 -1.11963,0 -10.04869,6.15227 -19.84375,13.67187 -17.80919,13.67194 -17.81218,13.67383 -63.20312,13.67383 -24.9649,0 -45.39635,-0.514 -45.40625,-1.14062 -0.009,-0.62665 -0.0632,-29.84999 -0.11719,-64.94141 -0.0546,-35.09136 -0.47637,-65.68279 -0.93945,-67.98047 -0.80608,-3.99977 -1.26058,-4.17773 -10.62696,-4.17773 z m 38.82422,161.15625 c 26.57495,0.13065 26.57372,0.13224 16.39649,4.50195 -5.59736,2.40334 -15.95974,5.76245 -23.0293,7.46485 -19.1728,4.61697 -20.04135,4.45402 -20.75977,-3.84961 -0.33027,-3.81874 -0.28083,-7.2349 0.10938,-7.59375 0.39039,-0.35883 12.66683,-0.59534 27.2832,-0.52344 z m -66.86328,33.66797 c 0.67525,-5.8e-4 1.15232,0.10359 1.39453,0.32617 2.17658,2.00102 -43.39171,41.22719 -54.5664,46.97266 -10.96538,5.63777 -27.11741,9.17425 -25.8418,5.65625 1.1699,-3.22686 18.48705,-20.5834 28.2793,-28.3418 5.22184,-4.13731 14.68985,-10.32783 21.03906,-13.75977 9.0526,-4.89325 20.92711,-9.36959 27.11523,-10.55078 1.03139,-0.19688 1.90483,-0.30216 2.58008,-0.30273 z M 335.0625,382.50586 c 1.53408,0.093 2.82029,2.14026 5.39258,6.23633 2.82949,4.50577 4.78569,8.73128 4.34375,9.38867 -1.43154,2.12951 -23.74219,1.42824 -23.74219,-0.74609 0,-1.06725 3.2088,-5.29082 7.12891,-9.38672 3.56389,-3.72353 5.34293,-5.58536 6.87695,-5.49219 z m -3.66602,33.58789 c 26.83699,0.0579 26.8369,0.0568 31.38086,6.0957 2.49916,3.32152 4.54493,6.72483 4.54493,7.5586 0,0.83378 -2.52179,9.19775 -5.60547,18.58789 -6.09951,18.57442 -13.38482,54.62539 -15.41992,76.31836 -1.28251,13.67194 -1.28219,13.67088 -41.58594,14.07812 -40.30366,0.40744 -40.3023,0.40784 -39.4043,-12.15234 1.09181,-15.27023 6.49211,-39.95965 12.17188,-55.64453 2.3109,-6.38144 9.35047,-21.34598 15.64257,-33.25196 11.43998,-21.64731 11.43858,-21.6475 38.27539,-21.58984 z m 53.54297,33.36328 c 0.53179,0 8.08242,6.25489 16.78125,13.90039 17.29943,15.20489 39.2328,29.19722 62.28321,39.73438 14.70748,6.72338 54.79662,20.80273 59.23437,20.80273 3.80739,0 6.27085,4.05146 5.71289,9.39649 -0.52593,5.03612 -0.52702,5.03522 -79.42578,5.42968 -78.89875,0.39445 -78.89844,0.39577 -78.89844,-5.5332 0,-21.28828 10.67343,-83.73047 14.3125,-83.73047 z m 167.1875,83.41016 c 0.1931,-0.006 0.40434,-0.002 0.63477,0.0117 1.84325,0.10925 4.94784,0.83743 10.43945,2.25195 6.77257,1.74448 12.31641,3.68949 12.31641,4.32226 0,0.63276 -4.69055,1.1504 -10.42383,1.1504 -11.16799,0 -16.83591,-2.33406 -15.19727,-6.25977 0.38818,-0.9301 0.87877,-1.43732 2.23047,-1.47656 z m 38.38086,22.92773 c 39.7753,0 39.77587,10e-4 58.01172,8.35938 27.24615,12.48782 39.90588,22.40526 47.24414,37.00976 3.72532,7.41448 4.02785,9.54073 3.33985,23.54688 -0.66292,13.49247 -1.77721,18.11862 -8.99414,37.42187 -8.23536,22.02703 -8.23524,22.02848 -73.80665,22.42578 -36.06419,0.2184 -65.62821,-0.1236 -65.69726,-0.75976 -0.0983,-0.9057 -0.007,-118.2276 0.0996,-126.10547 0.0195,-1.46576 9.09747,-1.89844 39.80273,-1.89844 z m -285.96875,0.0254 c 19.85639,0 39.72702,0.37821 40.23047,1.12696 0.42615,0.63402 1.62159,9.35023 2.65625,19.36914 4.1389,40.07423 9.94128,64.72736 22.16211,94.17187 3.76948,9.08183 5.07426,14.00785 3.89453,14.68555 -1.96239,1.1171 -56.00973,1.31341 -61.89453,0.22461 -4.12116,-0.7624 -7.10186,-4.31922 -15.67773,-18.70703 -11.7046,-19.63679 -21.56886,-44.80251 -26.79883,-68.36133 -2.72228,-12.26313 -5.83073,-39.52739 -4.71875,-41.39453 0.44602,-0.74854 20.28997,-1.11858 40.14648,-1.11524 z m 145.8125,0.33985 c 78.07254,0.39458 78.07422,0.39466 78.07422,64.19726 0,63.80242 -3.3e-4,63.80397 -65.55469,64.20117 -65.5544,0.397 -65.5566,0.3968 -68.80859,-7.5957 -9.41076,-23.12963 -16.69458,-52.60095 -19.99609,-80.91016 -1.40243,-12.02563 -2.47084,-32.8994 -1.96485,-38.37304 0.14012,-1.51593 16.41651,-1.83231 78.25,-1.51953 z M 611.04297,703.1504 c 51.86402,0 60.31055,0.31131 60.31055,2.22461 0,2.6872 -15.58904,26.57007 -25.1504,38.53125 -21.41959,26.79594 -47.49096,44.23317 -75.64257,50.59375 -13.43048,3.0346 -17.03005,3.38582 -18.72852,1.82422 -0.60581,-0.5569 -1.09961,-21.74981 -1.09961,-47.09375 0,-46.07942 5.7e-4,-46.08008 60.31055,-46.08008 z m 103.47851,0 c 17.62422,-0.3672 39.44922,0.9068 39.44922,2.89649 0,1.89319 -30.66373,30.27592 -40.48242,37.4707 -29.92755,21.93016 -65.02306,37.99951 -102.5625,46.9668 -8.76891,2.09459 -18.64856,3.7969 -21.95703,3.7832 -5.46807,-0.023 -4.81281,-0.47406 7.20313,-4.97266 7.27032,-2.7219 18.79542,-8.25002 25.61132,-12.2832 17.46329,-10.33358 46.04419,-37.56909 59.48438,-56.68555 10.46563,-14.88566 10.92462,-15.29966 17.99219,-16.22656 3.97725,-0.5215 9.38699,-0.82682 15.26171,-0.94922 z M 466.875,703.50977 c 59.89689,0.3987 59.89844,0.39786 59.89844,46.73046 0,53.2079 1.59469,49.49515 -19.00196,44.22657 -22.4207,-5.7355 -40.67146,-15.96294 -58.6621,-32.88282 -15.14092,-14.24016 -42.13086,-50.5918 -42.13086,-56.74218 0,-1.2731 15.88643,-1.62493 59.89648,-1.33203 z m -94.25391,0.68359 c 5.6524,0.0412 9.64417,0.18125 10.61133,0.4082 2.15158,0.505 8.21902,7.30204 15.63477,17.51172 14.07787,19.38186 32.18044,37.47263 48.59375,48.56641 15.60762,10.54918 22.31004,13.98502 38.83008,19.9082 29.02822,10.40798 -12.83739,3.03903 -45.43946,-7.99805 C 403.90904,770.08328 367.63945,748.436 341.12305,723.06836 320.97954,703.7976 320.23773,705.0666 352.04688,704.375 c 7.60876,-0.1654 14.92182,-0.22289 20.57421,-0.18164 z" />
    <path
       id="path75"
       style="display:inline;fill:#e4bc44;fill-opacity:1;stroke-width:1.58433"
       d="m 473.08398,809.48633 c -6.19278,0 -35.68478,2.36432 -65.53515,5.2539 -29.85027,2.8895 -64.35881,5.90317 -76.68555,6.69727 -14.70931,0.9476 -24.64769,2.35149 -28.91601,4.08789 -5.2018,2.1162 -5.85504,2.78761 -3.26954,3.34961 4.28023,0.9303 54.5921,-1.93328 114.91016,-6.53906 60.87574,-4.6482 68.06269,-4.68383 80.25391,-0.39453 11.64003,4.09528 24.94035,15.54222 31.15234,26.8125 4.01342,7.28138 4.36135,9.29267 3.91797,22.71875 -0.48646,14.72896 -0.48636,14.72697 6.78125,15.20507 7.26751,0.4782 7.26713,0.48045 6.14062,-13.24023 -1.05814,-12.88748 -0.86139,-14.20821 3.25391,-21.74609 9.42302,-17.25978 21.06931,-26.29242 39.78125,-30.85352 8.77391,-2.1388 12.50185,-2.12052 41.04492,0.20508 17.26689,1.4067 22.87726,1.63014 23.70117,1.74414 1.76343,0.2434 31.279,2.15747 33.375,2.32617 11.38411,0.9169 27.03817,2.37003 39.99805,3.23633 14.96187,0.9998 23.29893,1.33354 35.11328,1.83984 21.4802,0.9204 21.48039,0.91909 11.56641,-3.84179 -8.94676,-4.2964 -12.09033,-4.90432 -32.2207,-6.22852 -24.84499,-1.634 -23.91381,-1.55887 -88.40039,-7.00195 -25.52806,-2.1548 -50.70936,-3.53437 -56.17969,-3.07617 -22.65151,1.65388 -38.71218,12.26812 -51.62305,28.6875 -2.29309,3.13308 -5.00033,5.66324 -6.01562,5.62304 -1.01516,-0.04 -4.44764,-3.8451 -7.62696,-8.45898 -11.44257,-16.60448 -31.67823,-26.40625 -54.51758,-26.40625 z m -26.16796,15.55664 c -11.41184,0.0957 -26.82581,1.53048 -50.67774,4.18164 -28.74634,3.1953 -72.25874,7.03327 -95.83594,8.45117 -12.95803,0.7794 -25.61132,3.92725 -25.61132,6.37305 0,1.0748 47.10831,-0.56285 72.70312,-2.52735 11.35976,-0.87178 24.74379,-1.89709 29.74219,-2.27929 82.18427,-6.2856 85.26503,-6.2377 100.89648,1.58398 18.3767,9.19538 30.6135,27.69016 32.39844,48.97071 1.03625,12.35457 1.0343,12.35546 5.86523,12.35546 4.83103,0 4.83023,-10e-4 3.8086,-8.73632 -3.48755,-29.81764 -18.25142,-52.81781 -39.69141,-61.83399 -9.65892,-4.06188 -17.10039,-6.16705 -28.93945,-6.49805 -1.47987,-0.0414 -3.02794,-0.0547 -4.6582,-0.041 z m 175.92578,0.22851 v 0.002 c -5.0518,0.036 -8.66465,0.38447 -11.74805,1.04687 -33.08928,7.1085 -54.53415,31.30679 -58.11328,65.57813 -1.07089,10.25388 -1.07151,10.2539 4.02148,10.2539 4.83097,0 5.14585,-0.37231 6.11524,-7.21679 2.98885,-21.10246 8.45333,-33.75939 19.09375,-44.22657 17.25678,-16.97596 33.57885,-19.17861 91.62109,-12.36523 22.21555,2.6078 98.57843,7.60484 115.02735,7.52734 15.50521,-0.073 15.50755,-0.0739 5.66406,-4.74218 -9.45147,-4.482 -11.22934,-4.75282 -44.61328,-6.8125 -19.12335,-1.1799 -12.08637,-1.07477 -37.14454,-2.66407 -28.99462,-1.83888 15.14725,-0.0354 -69.55078,-5.56445 -8.83226,-0.5765 -15.32128,-0.85271 -20.37304,-0.81641 z m 7.36523,17.34375 c -1.5872,0.0142 -3.08941,0.0535 -4.51562,0.11915 -11.40958,0.52539 -17.99585,2.7151 -24.97657,6.80468 -7.55746,4.4276 -20.52109,16.89838 -23.95117,23.03906 -3.5654,6.3827 -6.56022,20.90639 -5.27734,25.60547 0.84003,3.0772 2.10479,3.96875 5.63086,3.96875 4.35943,0 4.5864,-0.3803 5.45117,-9.14648 1.42363,-14.43418 5.84619,-23.72876 14.82226,-31.14844 13.73603,-11.35398 15.61932,-11.45366 98.74805,-5.32226 73.21132,5.40018 143.75391,8.8363 143.75391,7.0039 0,-0.4578 -3.53289,-2.46162 -7.84961,-4.45312 -6.84973,-3.1603 -11.10727,-3.75244 -33.45899,-4.64844 -25.11126,-1.0067 -87.92262,-5.51132 -118.96875,-8.5332 -22.99396,-2.23825 -38.29778,-3.38837 -49.4082,-3.28907 z m -188.41211,0.0937 c -9.35099,0.21259 -21.85775,1.10284 -39.77344,2.59766 -64.35972,5.3694 -105.3626,8.27676 -130.79101,9.27734 -20.18954,0.7944 -23.38897,1.30815 -30.45508,4.86133 -13.07245,6.5736 -11.54819,7.66202 9.54297,6.82422 37.61692,-1.4943 94.94683,-5.51298 127.74414,-8.95508 11.81417,-1.2399 33.15804,-3.07432 47.42969,-4.07422 23.20614,-1.62588 26.87368,-1.54837 34.69922,0.72461 18.27577,5.3082 31.05364,21.57772 31.05664,39.54688 0,8.83098 -8.9e-4,8.83167 5.36914,8.35547 4.96603,-0.4402 5.41374,-0.9317 5.93164,-6.55078 0.64107,-6.9564 -2.1361,-19.89862 -5.66602,-26.4043 -3.8363,-7.06998 -15.70812,-17.49815 -24.21093,-21.26953 -6.7784,-3.0067 -12.49777,-4.58767 -22.49415,-4.91797 -2.49903,-0.0826 -5.26581,-0.0865 -8.38281,-0.0156 z m 185.26758,16.92969 c -9.86432,-0.024 -20.78029,3.88857 -26.07227,9.34375 -5.05026,5.2053 -8.94921,16.2065 -8.94921,25.2461 0,7.63728 0.16611,7.92382 4.55664,7.92382 4.33766,0 4.53255,-0.30799 4.05078,-6.45507 -0.68355,-8.7218 3.88108,-16.00179 13.49609,-21.50977 7.71035,-4.4168 7.70964,-4.41296 41.95899,-2.38086 18.83724,1.1176 36.85447,2.15163 40.03515,2.29883 3.18083,0.1472 16.56499,1.07179 29.74219,2.05859 40.47995,3.0306 133.82695,9.28894 149.53711,10.02344 14.44412,0.6755 14.76119,0.61734 11.0918,-1.97266 -2.07801,-1.46668 -8.02634,-4.14302 -13.21875,-5.94922 -9.41828,-3.27608 -27.82318,-4.83091 -149.88868,-12.65429 -13.63166,-0.8737 -38.91289,-2.56993 -56.17968,-3.76953 -17.26689,-1.1997 -35.33915,-2.19103 -40.16016,-2.20313 z m -183.61719,0.22071 c -2.39785,0.0241 -5.03566,0.0952 -7.95117,0.20898 -7.77468,0.3032 -17.53269,0.91498 -30.01367,1.77148 -17.80678,1.2223 -49.47691,3.29833 -70.37891,4.61133 -20.90206,1.3131 -45.43957,3.01295 -54.52734,3.77735 -9.08776,0.76428 -28.79219,2.21195 -43.78711,3.21875 -26.96253,1.81038 -35.69122,3.71482 -45.39453,9.91211 -3.01254,1.92409 -2.71859,2.89928 2.98828,2.08398 34.7539,-4.9645 50.32419,-4.01426 87.99219,-5.72266 l 55.18359,-2.50195 c 22.84252,-1.036 43.2239,-3.40399 68.41406,-4.77539 50.57048,-2.7529 51.15402,-2.6943 60.4043,6.08008 5.55749,5.27158 9.2387,15.62182 7.42383,20.8789 -0.87852,2.54483 -0.34607,2.90853 3.66601,2.48633 4.26027,-0.4483 4.74269,-1.10571 5.21094,-7.09961 0.76004,-9.72838 -4.06621,-22.23661 -10.62305,-27.52929 -5.80666,-4.6873 -10.3465,-6.90008 -22.09375,-7.33008 -1.95789,-0.0717 -4.11581,-0.0945 -6.51367,-0.0703 z" />
    <path
       id="path76"
       style="display:inline;fill:url(#linearGradient47);fill-opacity:1;stroke-width:1.58433"
       d="m 763.05859,241.37695 c -0.90885,0.01 -3.44418,5.29954 -5.63281,11.75977 -2.18872,6.46013 -6.01513,15.5082 -8.50586,20.10351 -3.77068,6.95684 -16.9481,25.05323 -22.76172,31.26172 -0.84547,0.90284 -4.53659,6.71502 -8.20312,12.91407 -8.12009,13.7283 -15.81281,33.56428 -19.49414,50.26757 -6.24069,28.31521 2.36257,56.39581 25.42578,82.9961 8.13507,9.38273 8.8021,6.42073 0.88086,-3.90821 -13.76036,-17.94313 -21.21258,-35.99172 -23.09375,-55.92187 -2.5537,-27.05568 11.88129,-63.87628 33.30469,-84.94922 11.1454,-10.9632 20.62104,-26.44559 24.87109,-40.63672 1.43895,-4.80421 3.16885,-8.73437 3.8418,-8.73437 5.46467,0 15.45409,16.20759 19.41797,31.50586 7.28844,28.13124 -0.26319,59.94401 -20.32813,85.62109 -6.96981,8.91937 -6.56166,11.16002 0.69727,3.82617 31.73461,-32.06212 39.8851,-69.93039 22.4414,-104.24219 -5.36139,-10.54574 -20.66991,-31.88346 -22.86133,-31.86328 z m -69.45312,80.91407 c -1.61311,0.8109 -8.30008,13.58937 -13.96094,26.82031 -4.47985,10.47067 -12.49166,40.54396 -13.98437,52.49414 -3.30164,26.43118 15.94698,60.66418 49.54101,88.10742 31.09316,25.40025 53.24827,49.0863 61.10156,65.32227 10.66622,22.05127 9.59849,44.46539 -3.34375,70.21875 -3.17387,6.31562 -5.76867,11.89924 -5.76367,12.4082 0.0142,1.81867 19.28629,-18.73761 34.41211,-36.70899 19.27342,-22.8988 30.29397,-41.59643 39.26563,-66.60742 4.07399,-11.35743 4.58096,-15.0252 4.68554,-33.99804 0.0873,-15.81589 -0.62058,-23.72104 -2.76171,-30.83985 -4.76611,-15.84624 -12.85811,-32.05936 -22.85547,-45.79297 -10.41134,-14.30252 -35.20041,-39.58007 -38.81641,-39.58007 -3.24929,0 -15.3809,14.50306 -19.85742,23.74218 -12.38907,25.56888 -7.24367,56.23844 14.24804,84.95703 2.62,3.50102 4.33153,6.76562 3.80469,7.25 -1.29176,1.18763 -21.9863,-8.49986 -32.53711,-15.23046 -26.30387,-16.7795 -39.63607,-29.7783 -51.88672,-50.5879 -10.27877,-17.46012 -13.62587,-29.8023 -13.64257,-50.29492 -0.0142,-18.12791 2.16931,-29.57042 9.48828,-49.70312 2.22495,-6.1205 3.62666,-11.50819 3.11719,-11.97656 -0.0606,-0.0557 -0.14637,-0.0541 -0.25391,0 z m -19.96094,145.49023 c -2.43615,-0.12459 -7.25005,22.55364 -7.24805,34.14453 0,9.3135 3.35181,24.17368 7.00977,31.08203 2.76585,5.22347 9.08685,13.2664 16.12305,20.50977 15.88118,16.34825 28.75213,36.10659 35.68554,54.7832 5.69667,15.34601 5.98896,30.85572 0.92969,49.27539 -1.95061,7.10182 -3.54964,13.76802 -3.55664,14.8125 -0.0184,3.04891 1.25839,2.31612 9.27344,-5.31836 31.4497,-29.95622 47.01869,-74.05431 35.47265,-100.46679 -8.15547,-18.65635 -17.34508,-29.08975 -49.80664,-56.55079 -9.49162,-8.02955 -22.83443,-20.80419 -29.65039,-28.38867 -6.81594,-7.58446 -13.22082,-13.83121 -14.23242,-13.88281 z" />
    <path
       id="path19"
       style="display:inline;fill:#000000;fill-opacity:1;stroke-width:1.58433"
       d="m 536.51953,38.001953 c -1.87165,-0.01065 -3.8782,0.02182 -6.03906,0.0918 -13.62081,0.44104 -13.61987,0.441605 -14.14063,14.873047 -0.28636,7.937244 -0.0365,18.777952 0.56055,24.091797 1.08488,9.6615 1.08902,9.663031 18.21875,9.080078 18.95766,-0.645193 22.87548,-2.206529 30.2168,-12.042969 3.22515,-4.321252 3.75318,-6.624733 3.19726,-13.929687 -0.56881,-7.472401 -1.48603,-9.53173 -6.2832,-14.082032 -6.1604,-5.843575 -12.62894,-8.007497 -25.73047,-8.082031 z m -42.14844,2.8125 c -4.43222,0 -4.77137,0.412671 -4.70507,5.697266 0.10821,8.620087 4.29737,39.28991 5.63867,41.285156 1.02095,1.518636 6.84189,0.973703 9.0332,-0.845703 0.76963,-0.638883 -2.9344,-37.277942 -4.31836,-42.71875 -0.6542,-2.572286 -2.05281,-3.417969 -5.64844,-3.417969 z m 107.17969,0.230469 c -3.93176,0.02668 -5.52363,2.432169 -17.35937,20.707031 -7.49751,11.576465 -13.63086,21.857395 -13.63086,22.84375 0,0.986325 2.21098,1.791016 4.91406,1.791016 3.78944,0 5.50204,-1.042666 7.47851,-4.556641 2.78867,-4.957915 6.02098,-5.510262 21.1211,-3.607422 6.36505,0.802115 7.7099,1.56866 8.62695,4.927735 0.5974,2.188205 1.86168,4.837653 2.8086,5.886718 2.23793,2.47856 9.57812,2.475374 9.57812,-0.0059 0,-1.052035 -3.61848,-12.160627 -8.03906,-24.685547 -8.0376,-22.772425 -8.03874,-22.770518 -13.63281,-23.205078 -0.69388,-0.05391 -1.30355,-0.09951 -1.86524,-0.0957 z m -122.69336,2.523437 c -7.34261,-0.0025 -40.45301,5.722444 -42.48633,7.591797 -0.77668,0.71406 -0.91185,2.491656 -0.30273,3.951172 0.89307,2.139216 2.71402,2.558057 9.39844,2.154297 9.72539,-0.587403 9.25581,-1.338879 13.63672,21.90625 2.53006,13.426009 3.12845,14.810547 6.39648,14.810547 6.85564,0 7.2028,-2.181927 3.3125,-20.931641 -2.032,-9.79312 -3.34142,-18.146703 -2.9082,-18.564453 0.43337,-0.417743 3.89279,-1.475096 7.6875,-2.349609 6.77112,-1.560303 9.85015,-5.434908 6.65429,-8.373047 -0.14514,-0.133447 -0.62908,-0.195056 -1.38867,-0.195313 z m 58.5293,3.322266 c 8.00836,0 10.67278,0.684369 14.6582,3.767578 2.67898,2.072396 5.3342,5.907572 5.90235,8.519531 1.31892,6.063178 -2.68571,14.055579 -8.19922,16.365235 -2.27101,0.951293 -8.18317,1.730469 -13.13867,1.730469 -9.00998,0 -9.00977,-4.22e-4 -9.00977,-15.191407 0,-15.191015 -9.4e-4,-15.191406 9.78711,-15.191406 z m 110.05664,0.105469 c -0.43055,-0.0089 -0.83451,0.006 -1.21484,0.04883 -5.07111,0.570463 -5.95523,5.933769 -10.0293,21.492187 -4.15235,15.857065 -5.18212,22.117951 -3.84766,23.404297 1.00198,0.965793 6.65728,2.786829 12.56446,4.044922 21.50446,4.58009 32.29435,2.104989 39.21679,-8.996094 9.88016,-15.844168 0.54333,-31.069819 -22.66211,-36.960937 -6.69331,-1.699245 -11.01353,-2.970928 -14.02734,-3.033203 z m -227.50195,5.998047 c -0.64953,-0.0213 -1.27072,0.04542 -1.83008,0.207031 -0.99438,0.28719 -1.78662,0.875417 -2.17774,1.8125 -0.51693,1.238583 1.06307,7.811389 3.51368,14.603516 2.45019,6.792032 4.16127,12.621848 3.79882,12.955078 -0.36249,0.333203 -8.03329,-3.830112 -17.04297,-9.253907 -18.01936,-10.847373 -24.99803,-12.310397 -24.64843,-5.160156 0.17089,3.494769 11.49279,38.710397 13.33008,41.458987 0.81886,1.22503 7.00013,0.0206 9.14648,-1.78125 0.65213,-0.54744 -0.6715,-6.38001 -2.94531,-12.962893 -2.2737,-6.582998 -3.92054,-12.561393 -3.65821,-13.285156 0.2624,-0.72377 7.9083,3.119907 16.99219,8.541015 16.60455,9.909214 19.58271,10.984704 23.7207,8.574219 1.829,-1.065423 1.11775,-4.664335 -3.82421,-19.34375 -3.33971,-9.91996 -6.63931,-19.747167 -7.33203,-21.835937 -0.82794,-2.496165 -3.72877,-4.163886 -6.38477,-4.478516 -0.22134,-0.0262 -0.44169,-0.04368 -0.6582,-0.05078 z m 182.15429,0.01953 c 0.532,-0.0263 2.10491,3.713284 3.4961,8.308594 2.52945,8.355035 2.5312,8.355468 -4.58594,8.355468 -3.91437,0 -7.54103,-0.630545 -8.05859,-1.40039 -0.93952,-1.397595 7.31653,-15.172662 9.14843,-15.263672 z m 51.11719,4.509766 c 5.56,0 18.27464,4.980913 20.63867,8.083984 5.04266,6.618889 2.09756,19.059971 -5.23828,22.132812 -2.21441,0.927657 -6.40565,1.624188 -9.3164,1.548828 -6.18567,-0.160117 -16.03321,-2.571434 -16.03321,-3.925781 0,-0.515507 1.63446,-6.990753 3.63281,-14.388672 2.70782,-10.02402 4.31811,-13.451171 6.31641,-13.451171 z m 76.11328,12.582031 c -0.35938,-0.01849 -0.64972,0.0074 -0.86133,0.08203 -1.94494,0.686175 -20.78444,38.347152 -20.76953,41.517582 0.007,0.97466 0.93826,2.11763 2.07422,2.53906 4.82031,1.78822 7.39402,0.70086 9.93359,-4.19531 2.69778,-5.20118 2.70042,-5.19989 11.06641,-2.27735 4.60144,1.60744 11.40394,2.92188 15.11914,2.92188 13.70883,0 21.31795,-15.135105 13.00586,-25.86719 C 755.627,80.607436 734.71684,70.382845 729.32617,70.105468 Z m -382.80664,9.189453 c -0.6799,0.03532 -1.34611,0.195997 -2.08789,0.435547 -4.37156,1.412004 -4.37404,1.410685 -4.82617,27.580082 -0.4684,27.11406 -0.27551,27.85559 6.3457,24.59765 2.34344,-1.15311 3.19531,-3.19837 3.19531,-7.66211 0,-5.97544 0.18926,-6.16719 10.32618,-10.57617 12.24367,-5.32519 13.0596,-5.39659 16.9375,-1.45703 3.24022,3.29175 8.45147,3.90261 12.39257,1.45117 2.74972,-1.71032 1.92136,-2.49467 -25.36914,-23.882811 -9.93014,-7.782556 -13.42909,-10.262556 -16.22656,-10.478516 -0.23311,-0.018 -0.46087,-0.01961 -0.6875,-0.0078 z M 734.3457,81.83203 c 2.59495,0.149749 11.05475,3.954004 14.3418,6.660157 2.83898,2.337036 3.53857,4.100309 2.75977,6.953124 -0.57398,2.10259 -1.91457,4.332853 -2.97852,4.955079 -4.53177,2.65029 -20.93555,-1.089838 -20.93555,-4.773438 0,-1.254295 4.53758,-11.401404 6.0918,-13.621094 0.0992,-0.141602 0.35,-0.19522 0.7207,-0.173828 z m 46.74219,10.640625 c -1.60317,0.008 -26.29101,37.309245 -26.29101,39.722655 0,0.78238 6.32028,5.08793 14.04492,9.56836 13.36102,7.74983 21.18511,10.2384 21.72851,6.90821 0.13641,-0.83552 0.32317,-2.28775 0.41407,-3.22852 0.0908,-0.94076 -4.66747,-4.21997 -10.57032,-7.28711 -5.90282,-3.06704 -10.91614,-6.57111 -11.14062,-7.78516 -0.22459,-1.21402 0.93521,-3.80047 2.57812,-5.74804 2.98701,-3.5411 2.9872,-3.54157 12.79297,1.89453 5.3933,2.98975 10.34069,5.4404 10.99024,5.4414 0.64962,9.5e-4 1.97235,-1.35867 2.9414,-3.02343 1.55984,-2.67948 0.66713,-3.66462 -7.78906,-8.57813 -5.25379,-3.05278 -9.83996,-5.77031 -10.18945,-6.03906 -0.7535,-0.57932 3.20432,-9.70117 4.20898,-9.70117 1.43389,0 14.79342,6.59649 19.37891,9.56836 4.6367,3.00497 4.84279,3.0116 7.02343,0.26953 1.23562,-1.55343 2.2461,-3.3273 2.2461,-3.94336 0,-1.28527 -30.08277,-18.051225 -32.36719,-18.039065 z m -430.60351,0.04883 c 0.14833,0.0014 0.31293,0.03096 0.49609,0.08789 0.18316,0.05693 0.38385,0.141213 0.60547,0.251953 0.22162,0.11074 0.4628,0.249313 0.72656,0.41211 0.26376,0.16279 0.54978,0.351352 0.85938,0.564453 0.30953,0.213094 0.64283,0.449287 1.00195,0.710937 0.71824,0.5233 1.54005,1.142628 2.47851,1.84961 0.51617,0.388844 1.01042,0.776787 1.48047,1.160156 0.47005,0.383362 0.91658,0.762342 1.33203,1.130859 0.41546,0.368517 0.79997,0.727968 1.15235,1.072266 0.35238,0.344301 0.67229,0.673661 0.95312,0.984371 0.28083,0.31071 0.52381,0.60139 0.72461,0.86914 0.2008,0.26776 0.35848,0.51309 0.4707,0.72852 0.0562,0.10771 0.10039,0.20791 0.13282,0.30078 0.0324,0.0929 0.0529,0.17704 0.0605,0.25391 0.008,0.0769 0.003,0.14539 -0.0156,0.20508 -0.0182,0.0597 -0.0487,0.11101 -0.0937,0.15234 -0.0902,0.0827 -0.22255,0.18112 -0.39063,0.29102 -0.16807,0.10983 -0.37171,0.23105 -0.60742,0.36328 -0.47142,0.26444 -1.06771,0.56815 -1.74804,0.89257 -0.6804,0.32443 -1.44471,0.67035 -2.25196,1.01563 -0.80725,0.34528 -1.65778,0.69057 -2.50976,1.01758 -0.77454,0.29729 -1.45201,0.55793 -2.04492,0.76758 -0.29649,0.10482 -0.57249,0.1975 -0.82813,0.27539 -0.25564,0.0779 -0.49117,0.1399 -0.70898,0.1875 -0.21782,0.0476 -0.4166,0.0798 -0.59961,0.0937 -0.18302,0.014 -0.35071,0.009 -0.50196,-0.0137 -0.15124,-0.023 -0.28765,-0.0636 -0.41015,-0.12695 -0.12251,-0.0634 -0.23134,-0.14879 -0.32813,-0.25586 -0.0968,-0.10707 -0.18176,-0.2365 -0.25586,-0.39062 -0.0741,-0.15412 -0.13697,-0.3326 -0.1914,-0.53711 -0.0544,-0.20452 -0.0989,-0.4351 -0.13672,-0.69336 -0.0378,-0.25827 -0.0696,-0.54401 -0.0937,-0.85938 -0.0484,-0.63073 -0.0719,-1.37856 -0.084,-2.25781 -0.0121,-0.87925 -0.0117,-1.89034 -0.0117,-3.044921 0,-1.1546 10e-4,-2.165962 0.0156,-3.039063 0.007,-0.436547 0.0167,-0.838249 0.0332,-1.207031 0.0165,-0.368782 0.039,-0.70312 0.0684,-1.005859 0.0294,-0.302746 0.0655,-0.574062 0.11133,-0.8125 0.0459,-0.238445 0.10192,-0.445216 0.16797,-0.621094 0.066,-0.175878 0.14253,-0.320499 0.23242,-0.435547 0.0449,-0.05752 0.0929,-0.107749 0.14453,-0.150391 0.0516,-0.04264 0.10732,-0.07749 0.16602,-0.105468 0.0587,-0.02797 0.1213,-0.04896 0.1875,-0.0625 0.0662,-0.01354 0.13674,-0.02021 0.21094,-0.01953 z m -41.41797,6.357422 c -5.36352,-0.10374 -13.6595,3.138983 -19.77539,8.761713 -6.96188,6.40056 -8.15482,12.62337 -3.63672,18.9629 3.6896,5.17705 9.78474,5.83649 22.5957,2.44726 9.90854,-2.62131 11.42875,-2.69649 13.62891,-0.67383 4.88192,4.48836 -3.53769,11.84908 -15.57813,13.61914 -5.50781,0.80977 -6.72461,1.59413 -6.72461,4.33789 0,1.84275 0.3919,3.70976 0.8711,4.1504 1.53388,1.41017 12.94883,-1.20273 20.17382,-4.61915 21.51947,-10.17566 15.05842,-33.57949 -7.62304,-27.61523 -13.43779,3.53354 -18.21612,3.71178 -19.46289,0.72461 -1.341,-3.21247 7.64066,-11.31836 12.54101,-11.31836 5.35287,0 8.3711,-1.72082 8.3711,-4.76953 0,-2.68052 -2.16287,-3.945603 -5.38086,-4.007813 z m 519.32226,20.255863 c -2.27555,-0.0473 -5.67186,4.17576 -19.47461,20.3457 -12.71845,14.89943 -13.38395,16.04268 -10.85742,18.60937 1.48064,1.50404 3.6192,2.73438 4.75195,2.73438 1.13254,0 6.02753,-4.78426 10.87891,-10.63281 4.85155,-5.84861 9.38724,-10.63477 10.07812,-10.63477 0.69096,0 1.25586,8.49481 1.25586,18.87891 0,15.13837 0.5157,19.35363 2.59766,21.26757 1.42794,1.31296 3.2312,2.38868 4.00781,2.38868 2.18448,0 31.39844,-34.52399 31.39844,-37.10547 0,-1.25708 -1.61321,-3.08007 -3.58594,-4.05078 -2.85319,-1.40383 -3.95266,-1.31686 -5.37109,0.41406 -0.98069,1.19682 -5.50095,6.49988 -10.04492,11.78711 -8.26156,9.61326 -8.26037,9.6151 -8.6875,-9.95703 -0.39014,-17.8823 -0.73332,-19.80686 -3.96289,-22.27735 -1.06102,-0.81156 -1.77035,-1.496 -2.54102,-1.70312 -0.14449,-0.0388 -0.29165,-0.0613 -0.44336,-0.0644 z m -578.74023,14.75 c -3.09394,0.20755 -8.92879,4.24825 -21.06446,14.41211 -9.02815,7.56112 -9.02983,7.56259 7.08204,25.23632 8.86145,9.72065 16.56201,17.67383 17.10937,17.67383 0.54738,0 6.19816,-3.93021 12.55664,-8.73437 6.35854,-4.80421 13.13374,-9.90096 15.05469,-11.32618 3.49269,-2.5912 3.49027,-2.59265 0.11328,-5.72265 -3.24104,-3.00361 -3.50787,-3.02182 -6.60938,-0.43945 -1.7776,1.48002 -6.52821,5.25387 -10.55664,8.38476 -7.32467,5.69245 -7.32582,5.69149 -11.15429,2.38477 -2.10564,-1.81869 -3.81792,-4.04073 -3.80469,-4.93946 0.0137,-0.89876 3.69599,-4.36893 8.18164,-7.71093 8.76443,-6.52976 9.72986,-8.42801 5.80859,-11.41993 -2.09938,-1.60178 -3.79546,-0.92732 -10.32617,4.0918 -10.99103,8.447 -11.02961,8.45325 -14.94531,3.58399 -3.52498,-4.38329 -3.52723,-4.38081 6.33789,-11.71094 9.72968,-7.2294 12.26395,-11.90363 7.38477,-13.625 -0.34053,-0.12014 -0.72598,-0.16833 -1.16797,-0.13867 z m 622.82617,19.33789 c -5.44474,0.01 -5.17696,4.53216 0.5957,10.00781 5.52744,5.24306 5.52827,5.24291 -10.00976,19.58789 -15.33,14.15281 -15.49526,14.38644 -12.48633,17.44336 1.67749,1.7041 3.49052,3.08416 4.03125,3.06836 0.54075,-0.0157 7.97325,-6.20892 16.51367,-13.76172 15.52812,-13.73256 15.52743,-13.73093 21.5957,-8.2832 5.82948,5.23324 6.17711,5.33731 8.8086,2.66406 2.59424,-2.63555 1.97427,-3.52386 -11.6836,-16.75781 -7.93202,-7.68578 -15.74641,-13.97175 -17.36523,-13.96875 z m -660.84766,19.83593 c -7.88421,-0.0557 -16.51664,4.37559 -26.45703,13.38086 -6.12309,5.54704 -11.14082,10.85058 -11.15234,11.78516 -0.0114,0.93455 7.17659,7.76905 15.9707,15.18945 8.79435,7.42058 16.78861,14.32138 17.76367,15.33399 0.97513,1.0126 2.16563,1.86864 2.64844,1.90039 1.59812,0.1051 19.36232,-17.34502 21.42188,-21.04297 6.47246,-11.62089 5.04052,-21.31042 -4.39844,-29.73828 -4.55338,-4.06575 -9.24678,-6.31995 -14.23047,-6.73828 -0.51914,-0.0436 -1.04079,-0.0666 -1.56641,-0.0703 z m -2.73047,9.86133 c 0.69032,0 1.32651,0.0145 1.91993,0.0469 0.59341,0.0323 1.14311,0.0828 1.66015,0.15625 2.06818,0.29383 3.60801,0.95188 5.27539,2.2539 0.41685,0.32551 0.84204,0.69115 1.28516,1.10157 0.44312,0.41042 0.90461,0.86504 1.39453,1.36914 0.44241,0.45521 0.85626,0.91177 1.24024,1.37109 0.3839,0.45932 0.7389,0.92152 1.06445,1.38477 0.32554,0.46324 0.62154,0.92753 0.88867,1.39453 0.26713,0.46699 0.50417,0.93567 0.71289,1.40625 0.20872,0.47058 0.38874,0.94397 0.53906,1.41797 0.15032,0.47399 0.27136,0.94855 0.36328,1.42578 0.18386,0.95446 0.25084,1.91642 0.20118,2.88281 -0.0248,0.48319 -0.0789,0.96721 -0.16211,1.45312 -0.0832,0.48592 -0.19634,0.97442 -0.33789,1.4629 -0.14156,0.4884 -0.31182,0.97796 -0.51172,1.46874 -0.19991,0.49086 -0.42926,0.98155 -0.6875,1.47461 -0.25825,0.49307 -0.54475,0.98733 -0.86133,1.48243 -0.31658,0.4951 -0.66221,0.99131 -1.03711,1.48828 -0.3749,0.49696 -0.77968,0.99548 -1.21289,1.49414 -0.43321,0.49866 -0.8952,0.99793 -1.38672,1.49804 -2.46483,2.50829 -5.0785,4.67405 -6.67578,5.59961 -0.26621,0.15428 -0.50262,0.27419 -0.70703,0.35547 -0.20441,0.0813 -0.37599,0.12305 -0.50781,0.12305 -0.13184,0 -0.33798,-0.0731 -0.61133,-0.21094 -0.27336,-0.13786 -0.61467,-0.33992 -1.01172,-0.60156 -2.38228,-1.56984 -6.82976,-5.24145 -11.41797,-9.49219 -3.47584,-3.22025 -5.86481,-5.43385 -7.2793,-7.16211 -0.28289,-0.34565 -0.52664,-0.67147 -0.73242,-0.98242 -0.20578,-0.31095 -0.37354,-0.608 -0.5039,-0.89258 -0.52176,-1.13829 -0.4485,-2.09913 0.16406,-3.14843 0.15314,-0.26235 0.339,-0.52911 0.55859,-0.80664 0.43918,-0.55521 1.01078,-1.15021 1.70508,-1.81641 0.69429,-0.66621 1.51208,-1.40423 2.44727,-2.24805 0.79825,-0.72031 1.52966,-1.36682 2.20898,-1.94531 0.67932,-0.57849 1.30693,-1.08955 1.89844,-1.54102 2.95747,-2.25725 5.01289,-3.01965 8.11523,-3.21093 0.62047,-0.0383 1.28216,-0.0527 2.00195,-0.0527 z m 701.72071,7.94922 c -0.20639,0.005 -0.41327,0.0289 -0.62305,0.0703 -2.01386,0.39765 -4.26825,2.43109 -8.40625,5.48633 -12.40074,9.15587 -13.18964,9.71948 -22.43359,16.04883 -4.27094,2.9243 -7.78841,5.76401 -7.81641,6.30859 -0.0287,0.54459 5.20995,7.24659 11.64063,14.89649 6.43088,7.65 12.51193,13.65854 13.51367,13.35156 1.00168,-0.30701 2.55627,-1.62654 3.45312,-2.93359 1.25032,-1.82247 -0.16676,-4.47884 -6.07812,-11.39649 -4.23991,-4.9614 -7.70899,-9.61038 -7.70899,-10.32812 0,-2.11414 5.28503,-6.85938 7.63868,-6.85938 1.19286,0 5.24432,3.74432 9.0039,8.32227 5.83348,7.1036 7.29186,8.09646 9.96484,6.78125 4.2206,-2.07672 3.94308,-4.3707 -1.1875,-9.78711 -2.37433,-2.50653 -5.49635,-6.18405 -6.9375,-8.17188 -2.46682,-3.40255 -2.39497,-3.77932 1.19922,-6.45508 2.09966,-1.56304 4.43441,-2.84375 5.18946,-2.84374 0.75486,0 4.80611,4.10214 9.00195,9.11523 7.81067,9.33207 10.54639,10.71128 13.89648,7 1.5186,-1.68234 -0.17792,-4.56048 -8.27929,-14.05273 -9.01295,-10.56047 -11.93554,-14.63123 -15.03125,-14.55274 z m 24.54687,43.39648 c -0.38747,-0.008 -0.77758,-0.006 -1.16992,0.008 -10.9856,0.3802 -23.76761,9.28479 -25.74609,18.98047 -2.24972,11.02525 4.76548,24.84339 15.08789,29.72265 6.18974,2.92574 8.13583,2.42186 8.71875,-2.25781 0.34015,-2.73055 -0.80333,-4.33293 -4.42774,-6.20703 -6.61455,-3.42019 -10.64893,-10.89895 -9.33984,-17.31445 1.38646,-6.79482 9.33027,-12.82227 16.9043,-12.82227 8.23043,0 17.06054,8.14886 17.06054,15.74609 0,3.8791 0.94836,5.88184 3.33985,7.0586 4.81635,2.36985 6.57422,0.65148 6.57422,-6.42774 0,-11.5653 -10.59461,-23.28016 -23.60743,-26.09961 -1.09444,-0.23715 -2.2321,-0.36189 -3.39453,-0.38672 z m -793.51953,7.06641 c -1.94069,0.006 -4.37279,1.60578 -5.58008,3.67969 -1.98515,3.41046 -1.09755,5.21167 12.35352,25.06445 7.97112,11.76477 15.48775,21.39258 16.70117,21.39258 3.74769,0 4.68239,-7.51802 1.54297,-12.4043 -3.05967,-4.76176 -3.53599,-3.66098 9.28711,-21.56836 0.62,-0.86594 4.09439,-1.4133 7.7168,-1.21679 5.21535,0.28292 7.12422,-0.35217 9.18164,-3.05274 1.4289,-1.8757 2.04823,-3.83756 1.375,-4.36133 -1.31229,-1.02097 -46.84682,-7.54536 -52.57813,-7.5332 z m 9.09375,10.41016 c 1.28989,-0.01 3.59069,0.26007 7.99219,0.79687 8.69003,1.05984 8.69015,1.05986 4.95703,7.07032 -2.05324,3.30574 -4.47798,5.99656 -5.38672,5.98046 -1.66486,-0.0295 -10.27082,-11.78215 -9.50195,-12.97656 0.36835,-0.57243 0.64947,-0.86109 1.93945,-0.87109 z m -32.9707,23.97656 c -0.36349,-0.019 -0.67427,0.007 -0.94922,0.0742 -0.73315,0.17973 -1.20989,0.64913 -1.73438,1.30859 -1.22235,1.53689 -2.22265,3.64238 -2.22265,4.67774 0,1.03536 9.85128,6.69686 21.89258,12.58203 12.04122,5.88501 22.46876,10.7185 23.16992,10.74023 2.18401,0.0674 5.21065,-7.5292 3.55469,-8.92187 -0.83864,-0.70534 -11.11997,-5.91392 -22.84766,-11.57617 -13.20943,-6.37767 -18.31889,-8.75181 -20.86328,-8.88477 z m 842.54101,3.85352 c -1.38899,-0.0407 -2.7773,0.0143 -4.15234,0.16796 -6.60007,0.73742 -12.87497,3.73147 -17.24219,9.16211 -5.58207,6.94159 -6.25781,18.65861 -1.58789,27.52735 4.05269,7.6969 9.70914,12.07164 18.29102,14.14453 10.39595,2.51113 21.21342,-1.54494 28.69336,-10.75586 4.32394,-5.32452 4.44229,-17.76614 0.24609,-25.77734 -4.80772,-9.17813 -14.52484,-14.18394 -24.24805,-14.46875 z m 1.02344,9.96093 c 7.10234,0.084 13.02984,4.3625 15.73633,11.90235 2.38434,6.64196 -1.26743,14.79636 -8.08008,18.03515 -2.75274,1.30879 -6.34516,2.33816 -7.98047,2.28516 -18.14046,-0.58745 -23.6959,-24.76776 -7.09375,-30.875 2.55211,-0.93885 5.0506,-1.37562 7.41797,-1.34766 z m -851.91992,6.77735 c -0.12259,0.0137 -0.24684,0.0409 -0.375,0.084 -1.02518,0.34445 -2.28023,1.6454 -4.61914,4.18945 -5.565628,6.05406 -9.934273,17.82933 -8.554689,23.0586 1.601729,6.07093 7.116119,10.36133 13.318359,10.36133 5.69454,0 9.74003,-2.88577 19.87109,-14.18555 4.14192,-4.61982 9.04314,-4.86253 9.95899,-0.49024 0.98228,4.68905 -1.11651,9.5508 -6.34766,14.69922 -3.3588,3.30569 -4.69083,5.87394 -4.03515,7.77344 2.40884,6.97779 12.23902,0.0248 18.05273,-12.76758 4.66468,-10.26392 2.27932,-19.32199 -5.91211,-22.4414 -7.1676,-2.72958 -12.03481,-0.73406 -20.54492,8.42382 -7.77978,8.37223 -12.75935,10.41318 -14.60547,5.99024 -1.03624,-2.48272 1.74278,-9.2157 6.69727,-16.22656 2.82191,-3.99332 2.81837,-4.269 -0.0371,-6.83594 -1.24579,-1.11994 -2.00907,-1.72867 -2.86719,-1.63281 z m 880.11523,36.08789 c -0.50412,-0.0255 -1.00999,-0.0244 -1.51562,0.006 -2.6967,0.15955 -5.39649,1.11757 -7.90039,2.97851 -3.42422,2.54471 -4.00138,4.5421 -4.72656,16.33203 -0.76102,12.37188 -1.1101,13.46762 -4.43165,13.90235 -4.88953,0.63999 -7.66949,-4.33754 -8.74609,-15.66211 -0.74514,-7.83625 -1.33069,-9.11524 -4.17187,-9.11524 -2.89666,0 -3.36563,1.16402 -3.79493,9.41797 -0.57675,11.09396 3.58819,20.28815 10.82618,23.89844 5.76428,2.87527 7.74543,2.89785 13.5039,0.16016 6.015,-2.85974 6.72852,-4.80485 6.72852,-18.35743 0,-9.40969 0.49981,-11.4619 3.09765,-12.74023 4.8585,-2.3905 8.88386,2.92871 9.78516,12.91992 0.724,8.02952 0.95558,8.39196 5.07616,7.95117 5.3718,-0.57462 6.1778,-3.81293 3.5918,-14.4375 -2.5155,-10.33413 -9.76045,-16.8715 -17.32226,-17.2539 z m -901.542965,6.39258 c -2.808748,-0.13723 -3.865908,1.98617 -8.222656,14.8789 -2.843649,8.41522 -4.871517,16.12186 -4.507813,17.125 0.363647,1.00312 10.646582,4.71884 22.851563,8.25781 12.205171,3.53895 23.081141,6.47185 24.171871,6.51758 1.09904,0.0463 4.48943,-7.19584 7.60352,-16.24609 4.58838,-13.33537 5.23359,-16.71726 3.51562,-18.4375 -3.80519,-3.81037 -6.92558,-0.55316 -10.71484,11.18164 -3.73536,11.56789 -3.73628,11.56931 -8.84375,10.58203 -2.80915,-0.54298 -5.66669,-1.46331 -6.34961,-2.04492 -0.68293,-0.58162 0.35208,-5.40445 2.30274,-10.71485 3.40977,-9.28306 3.43276,-9.73195 0.55273,-11.66796 -4.28033,-2.87755 -6.49113,-0.56947 -9.78125,10.21093 -2.798986,9.17121 -2.812407,9.18308 -8.058594,8.15039 -2.890156,-0.56894 -5.5469,-1.2816 -5.90625,-1.58398 -0.359342,-0.30239 0.657694,-4.49441 2.259766,-9.31641 4.197958,-12.6363 4.135788,-16.25941 -0.28711,-16.83789 -0.204318,-0.0267 -0.398686,-0.0455 -0.585937,-0.0547 z m 923.128925,31.85546 c -0.4445,-0.005 -0.9321,0.0231 -1.4434,0.0899 -3.3473,0.43709 -3.6956,1.27521 -3.4941,8.41406 0.2544,9.02461 1.6787,8.15286 -19.22463,11.77539 -21.57617,3.73921 -21.48208,3.71195 -21.45508,6.53125 0.0654,6.7437 1.81935,7.02287 22.16407,3.53711 10.58288,-1.81327 19.87274,-2.93667 20.64454,-2.49805 0.7722,0.4387 1.9266,3.36006 2.5664,6.4961 0.6398,3.13598 1.5137,6.2225 1.9394,6.85547 1.1065,1.64595 2.8534,1.42714 5.9766,-0.74805 2.5182,-1.75381 2.4163,-3.29256 -1.3359,-20.12891 -2.2342,-10.02601 -4.0624,-18.78984 -4.0625,-19.47461 -3e-4,-0.51349 -0.942,-0.83394 -2.2754,-0.84961 z m -894.00588,19.56446 c -3.56625,0 -4.22302,0.97509 -5.89648,8.73633 -3.53738,16.40711 -2.13998,15.78507 -24.787112,11.01171 -20.256109,-4.26936 -21.805934,-4.13463 -21.171875,1.84375 0.517782,4.88221 0.517841,4.88488 21.998047,8.96094 11.813981,2.24187 22.93806,3.97249 24.7207,3.84961 2.69597,-0.18586 3.726,-2.39483 6.1211,-13.13476 4.10256,-18.39695 3.96861,-21.26758 -0.98438,-21.26758 z m 854.45508,25.79883 c -0.73935,0.0151 -1.11109,2.22695 -0.82617,4.91601 0.42798,4.04021 1.44246,5.13096 5.84765,6.28516 6.11539,1.60221 6.74665,2.93083 7.31055,15.41015 0.3953,8.74642 0.1996,9.23684 -4.8125,12.15235 -4.99088,2.90318 -7.22386,9.16272 -4.24609,11.90039 0.60674,0.55773 4.8811,-0.91006 9.5,-3.26367 41.31846,-21.05472 40.61856,-20.62628 40.61916,-24.7793 2e-4,-2.19534 -0.9305,-4.6461 -2.0664,-5.44531 -2.1939,-1.54356 -49.04733,-17.22258 -51.3262,-17.17578 z M 67.814453,431.77734 c -0.149591,0.0122 -0.298056,0.037 -0.447265,0.0762 -1.79049,0.46985 -3.572276,2.89475 -5.865235,7.5371 -7.358465,14.8979 -0.336452,33.13742 14.416016,37.44532 5.422216,1.58346 17.411358,0.73865 22.072265,-1.55469 1.743992,-0.85808 5.203146,-4.00912 7.687496,-7.00391 5.27724,-6.36078 7.12789,-19.64379 3.96485,-28.45507 -1.72186,-4.79694 -2.72702,-5.50604 -9.01563,-6.37305 -11.161485,-1.53884 -14.954138,-0.55488 -15.5332,4.03516 -0.537962,4.26335 2.544941,5.83294 11.541016,5.875 5.093564,0.0239 6.347874,3.50318 4.384764,12.17382 -2.770758,12.23826 -18.778358,16.4921 -27.980468,7.43555 -5.95794,-5.86374 -6.630126,-15.51183 -1.5,-21.50781 3.200124,-3.74026 3.207558,-3.94332 0.267579,-7.28125 -0.943129,-1.07088 -1.802407,-1.79734 -2.626953,-2.1543 -0.463765,-0.20078 -0.916463,-0.28447 -1.365235,-0.24805 z m 925.425777,1.26954 c 3.40402,0.0477 16.84377,4.70087 16.84377,6.05273 0,0.65638 -3.6383,2.88577 -8.084,4.95703 -8.08348,3.76593 -8.08264,3.76735 -9.21094,-3.15039 -0.6207,-3.80472 -0.73601,-7.27704 -0.25781,-7.7168 0.11134,-0.10237 0.35684,-0.14751 0.70898,-0.14257 z m -5.63867,39.57031 c -1.03151,-0.009 -1.98441,-0.003 -2.86523,0.0234 -10.56938,0.31233 -10.7411,3.40194 -11.42774,15.76954 -0.5034,9.06951 -0.57062,17.0075 -0.14843,17.63476 0.42163,0.62727 2.5524,1.13867 4.73242,1.13867 3.80109,0 3.98066,-0.48399 4.44336,-11.77343 0.4826,-11.77303 0.48358,-11.77334 22.37696,-12.19727 21.8945,-0.42387 21.8945,-0.42394 21.8945,-4.08789 0,-2.01524 -0.5586,-3.96902 -1.2402,-4.3418 -0.6817,-0.37278 -12.4679,-1.1709 -26.19142,-1.77148 -4.6784,-0.20475 -8.47968,-0.36878 -11.57422,-0.39453 z M 84.080078,487.43555 c -25.684002,0 -25.682177,-4.3e-4 -26.695312,3.71093 -0.557346,2.04127 -0.502812,4.47109 0.123046,5.40235 0.778795,1.15867 9.043253,1.54844 26.179688,1.22851 25.04141,-0.46755 25.04081,-0.46727 25.55859,-5.40429 0.51779,-4.93711 0.51824,-4.9375 -25.166012,-4.9375 z m 75.214842,439.02148 c -7.3126,0 -9.26938,0.70562 -14.86523,5.35352 -5.4008,4.48581 -7.02286,7.3334 -10.03711,17.60351 -5.84675,19.92062 -1.32905,30.92245 14.54492,35.41406 9.6255,2.7237 8.28227,2.65327 15.45312,0.82227 6.07228,-1.5504 14.56446,-9.0214 14.56446,-12.8125 0,-1.0976 -1.90867,-2.43681 -4.24024,-2.97461 -3.36136,-0.7759 -5.20867,-0.0228 -8.92382,3.63477 -5.21215,5.12961 -9.44253,5.72342 -16.58399,2.32812 -5.96919,-2.838 -7.78576,-10.03043 -5.04883,-20.02344 4.94684,-18.06182 10.63519,-23.42287 21.63672,-20.39257 6.37773,1.75691 9.68102,6.41515 8.4707,11.94726 -0.37864,1.7312 5.94514,4.92578 9.75196,4.92578 2.73219,0 1.63599,-11.24125 -1.56836,-16.07226 -4.05675,-6.1164 -12.6905,-9.75391 -23.1543,-9.75391 z m 746.82617,8.02735 c -6.73847,0.31072 -13.36296,2.97459 -18.07812,7.9121 -6.35751,6.6571 -7.73555,13.42759 -5.22461,25.66211 2.29921,11.20301 7.26123,19.56437 14.17578,23.88477 3.82432,2.3898 6.8932,2.91656 14.38477,2.47656 10.10624,-0.5936 15.71087,-3.36278 21.67968,-10.71289 7.08521,-8.72351 2.29304,-33.9287 -8.17773,-43.00781 -5.16871,-4.4817 -12.02119,-6.52543 -18.75977,-6.21484 z m -680.85742,6.20507 c -3.2009,-0.0176 -6.03438,3.7478 -21.20508,25.49024 -18.5688,26.61373 -19.30288,28.56053 -10.78125,28.61523 2.34844,0.016 4.85575,-1.86567 7.27149,-5.45898 3.61693,-5.3806 3.8318,-5.46515 11.76172,-4.49805 13.63518,1.663 15.7466,2.93153 17.08007,10.26563 0.6551,3.60291 2.02991,7.05218 3.05469,7.66598 1.02467,0.614 3.58731,1.1255 5.69336,1.1407 2.87102,0.017 3.61718,-0.6415 2.98633,-2.6348 -0.46279,-1.46248 -2.46099,-14.96481 -4.44141,-30.00392 -1.98039,-15.03902 -4.06899,-27.80945 -4.64062,-28.37695 -0.57162,-0.5675 -2.97844,-1.47041 -5.34766,-2.00781 -0.50931,-0.11555 -0.97436,-0.19476 -1.43164,-0.19727 z m 682.80664,2.47852 c 14.02024,0 24.15115,33.25108 12.23242,40.15039 -7.82521,4.52991 -12.45017,4.25178 -18.89062,-1.13672 -6.2587,-5.23651 -10.8174,-24.44686 -7.61914,-32.10937 1.29498,-3.1026 9.15655,-6.9043 14.27734,-6.9043 z m -50.74414,2.10351 c -3.07176,0.388 -8.3142,2.08813 -8.14648,2.98243 0.11027,0.5877 2.2513,10.60616 4.75781,22.26367 4.29663,19.98312 4.40045,21.41533 1.82617,25.02734 -3.73522,5.24108 -11.20296,5.20438 -15.38672,-0.0762 -2.50638,-3.1632 -3.94656,-3.70789 -7.57226,-2.87109 -5.16152,1.1911 -5.41161,2.23435 -1.98047,8.33397 1.53441,2.7283 4.56339,5.0125 7.84766,5.9141 11.36402,3.118 23.75708,-0.9963 28.20312,-9.36135 2.99315,-5.63189 2.97204,-5.92602 -1.89844,-28.58204 -2.7063,-12.59002 -5.21637,-23.16675 -5.58203,-23.50195 -0.26165,-0.2407 -1.04444,-0.25655 -2.06836,-0.12695 z m -587.08594,4.34961 c -0.84641,-0.0248 -1.39703,0.0295 -1.5625,0.18164 -0.70467,0.6478 -9.37414,44.32755 -10.72265,54.02537 -0.42548,3.0593 0.37116,3.8695 4.63086,4.7031 5.04508,0.988 5.18051,0.8644 7.02148,-6.4667 1.03252,-4.11275 1.87891,-9.55433 1.87891,-12.09184 0,-2.3071 -3.7e-4,-3.46107 0.98047,-3.90625 0.49042,-0.2226 1.22646,-0.26716 2.33008,-0.19141 1.10354,0.0757 2.57503,0.27248 4.5371,0.53516 4.31678,0.5775 9.61933,2.0958 11.78321,3.375 0.90806,0.53679 1.60375,0.9928 2.12109,1.5039 0.51735,0.5111 0.8559,1.07664 1.05274,1.83203 0.39368,1.51079 0.21702,3.78056 -0.25,7.88871 -0.5565,4.8947 -0.57558,9.9477 -0.041,11.2285 0.58866,1.4101 3.02138,2.3262 6.16602,2.3262 2.59663,0 3.89576,0 4.54492,-1.5 0.32416,-0.7493 0.48531,-1.8739 0.5664,-3.5586 0.0812,-1.6858 0.082,-3.9331 0.082,-6.9297 0,-9.64657 -0.61205,-12.60162 -3.14649,-15.18362 -2.00106,-2.03857 -2.5482,-2.82437 -1.76172,-3.08985 0.26216,-0.0885 0.6725,-0.11914 1.22656,-0.11914 4.25628,0 9.46485,-7.44801 9.46485,-13.53711 0,-6.55441 -3.34513,-11.44146 -9.99219,-14.60156 -2.59808,-1.23535 -10.38636,-3.10014 -17.68945,-4.5039 -3.65159,-0.70192 -7.18045,-1.28792 -9.88086,-1.62305 -1.35021,-0.16757 -2.49336,-0.27212 -3.33985,-0.29688 z m -46.48828,5.70703 c 0.91612,-0.28471 1.18908,1.59828 1.73633,5.36719 0.60202,4.1457 1.15867,9.75931 1.23828,12.47461 0.15515,5.2933 -0.63267,5.56162 -10.59375,3.60352 -2.72621,-0.536 -4.79,-1.65112 -4.58398,-2.47852 0.20603,-0.8274 3.18028,-5.92335 6.60937,-11.32226 3.11747,-4.9084 4.67756,-7.35964 5.59375,-7.64454 z m 560.00196,2.26758 c -0.43872,0.0367 -0.90715,0.12704 -1.42969,0.24414 -1.20897,0.27175 -2.42385,0.68254 -3.4082,1.125 -0.98438,0.44247 -1.73827,0.91661 -2.02344,1.31641 -0.26994,0.37845 -1.21806,4.01305 -2.48828,9.30469 -1.27041,5.2918 -2.86328,12.24109 -4.42188,19.24609 -1.56828,7.0486 -3.09716,14.13817 -4.23437,19.67187 -0.002,0.011 -0.006,0.028 -0.008,0.039 -0.005,0.024 -0.003,0.021 -0.008,0.045 -1.11161,5.4134 -1.84806,9.3338 -1.84765,10.1562 0,0.5662 0.10704,0.9988 0.35156,1.2989 0.24451,0.3 0.62607,0.4678 1.17773,0.5058 1.10334,0.076 2.88405,-0.3678 5.5918,-1.3144 0.78672,-0.275 1.44809,-0.5933 2.00976,-0.9981 0.5617,-0.4047 1.02471,-0.8964 1.41602,-1.5175 0.78262,-1.2427 1.27813,-3.0051 1.70703,-5.6348 0.27483,-1.685 0.48131,-2.9496 0.81836,-3.9199 0.22304,-0.6422 0.542,-1.1148 0.9375,-1.5371 0.10631,-0.1142 0.22351,-0.2227 0.34766,-0.3243 0.46263,-0.3805 1.00279,-0.7045 1.78906,-0.957 0.74904,-0.2405 1.78587,-0.4314 2.93359,-0.623 1.57375,-0.2659 3.38331,-0.5108 5.94922,-0.8301 3.19986,-0.3982 5.75944,-0.6383 7.82813,-0.6621 1.3755,-0.016 2.46285,0.1056 3.44922,0.2968 0.25519,0.049 0.49951,0.1074 0.73242,0.1719 0.89941,0.2484 1.69358,0.5668 2.3164,1.0625 0.003,0 0.007,0 0.01,0.01 0.005,0 0.008,0.011 0.0137,0.016 0.6236,0.5022 1.10103,1.1862 1.53516,1.9727 0.11332,0.2048 0.22581,0.417 0.33008,0.6425 0.39464,0.852 0.74924,1.7901 1.06836,2.959 0.20163,0.7387 0.43206,1.3379 0.73046,1.8223 0.29841,0.4844 0.66391,0.8543 1.13868,1.1308 0.47476,0.2766 1.05834,0.4612 1.78906,0.5762 0.73073,0.1151 1.6095,0.1602 2.67578,0.1602 1.46533,0 2.90512,-0.098 4.04297,-0.2559 1.13784,-0.1579 1.97374,-0.3756 2.23437,-0.6152 0.13031,-0.1199 0.0793,-0.5195 -0.12304,-1.1387 -0.20233,-0.6192 -0.55584,-1.457 -1.03321,-2.4551 -0.95472,-1.9962 -2.40207,-4.6307 -4.11132,-7.4199 -3.41832,-5.5781 -10.84962,-17.82984 -16.51563,-27.22655 -3.67358,-6.09209 -6.07219,-10.01151 -7.85547,-12.48047 -0.89164,-1.23449 -1.62838,-2.1049 -2.29492,-2.70508 -0.66654,-0.60018 -1.26272,-0.9293 -1.86914,-1.07617 -0.40425,-0.0979 -0.81324,-0.11493 -1.25195,-0.0781 z m -448.74024,2.44141 c -0.9189,-0.0131 -1.50799,0.044 -1.66406,0.1875 -0.13821,0.12707 -0.37955,1.10454 -0.69336,2.7207 -0.31381,1.61616 -0.70013,3.87028 -1.13086,6.55078 -1.72291,10.72222 -4.14627,28.26178 -5.39258,39.02731 -0.31158,2.6915 -0.55046,4.9613 -0.68554,6.5938 -0.13509,1.6325 -0.16653,2.6284 -0.0664,2.7773 0.11359,0.169 0.35362,0.3297 0.69141,0.4766 0.33778,0.1468 0.77403,0.2793 1.27539,0.3906 1.00271,0.2227 2.27123,0.3613 3.56445,0.3613 2.30409,0 3.48675,-0.056 4.26367,-1.4609 0.38846,-0.7022 0.6756,-1.7409 0.95117,-3.2793 0.27558,-1.5384 0.53891,-3.5756 0.88086,-6.2734 1.39589,-11.01435 1.39804,-11.01508 10.28516,-10.93948 11.87747,0.1006 15.31858,3.64078 13.94141,14.33208 -0.26316,2.0426 -0.38965,4.1667 -0.38282,5.9433 0.003,0.8883 0.0392,1.6905 0.10938,2.3516 0.0702,0.6611 0.17409,1.1811 0.31054,1.5078 0.62163,1.4854 3.02203,2.3789 6.41211,2.3789 3.38873,0 4.65999,-6e-4 5.00391,-2.875 0.0688,-0.5749 0.0993,-1.264 0.10352,-2.0918 0.008,-1.6556 -0.093,-3.8634 -0.22852,-6.8066 -0.42531,-9.2305 -1.25992,-12.4852 -3.85938,-15.05082 -3.31648,-3.27439 -3.3151,-3.27446 0.14844,-4.28516 0.96995,-0.28293 1.97933,-0.92918 2.94727,-1.81641 2.41984,-2.21807 4.58253,-5.93924 5.23633,-9.22656 0.13076,-0.65746 0.20117,-1.2969 0.20117,-1.9043 0,-1.25947 -0.28838,-2.6326 -0.79688,-4.02148 -1.27124,-3.4722 -3.92251,-7.03721 -6.91015,-9.13672 -0.59755,-0.4199 -1.20813,-0.78207 -1.82422,-1.07227 -0.52112,-0.24544 -1.42841,-0.52919 -2.6211,-0.83398 -1.19262,-0.30479 -2.6708,-0.63156 -4.33007,-0.96484 -6.63739,-1.33316 -16.1884,-2.77087 -22.09571,-3.32618 -1.47682,-0.13882 -2.72562,-0.22127 -3.64453,-0.23437 z m -54.65039,0.13281 c 4.22099,-0.067 12.10225,1.57824 15.49414,3.61914 4.59501,2.7645 4.96226,9.77552 0.69727,13.32422 -2.95749,2.4605 -5.37364,2.6649 -16.53321,1.4043 -5.50932,-0.622 -5.50972,-0.62267 -4.35546,-8.49219 0.63478,-4.3281 1.5353,-8.45342 2,-9.16992 0.29231,-0.451 1.29026,-0.66345 2.69726,-0.68555 z m 442.7832,6.65039 c -1.67134,3.1e-4 -3.55573,0.0114 -5.68945,0.0274 -9.91764,0.074 -18.51486,0.5819 -19.10547,1.125 -0.98878,0.909 3.39801,44.88099 5.45117,54.64059 0.12289,0.5842 0.19986,1.0934 0.28711,1.5312 0.61081,3.0648 1.72418,2.6476 22.59375,0.2071 16.03428,-1.875 23.42158,-8.3152 21.85547,-19.0508 -0.93768,-6.42678 -5.05688,-12.00192 -8.86914,-12.00192 -2.94643,0 -2.82245,-2.2095 0.25586,-4.5586 3.79156,-2.89271 3.20201,-13.96215 -0.97851,-18.37695 -2.86311,-3.02295 -4.10093,-3.5451 -15.80079,-3.54297 z m -318.40429,0.6543 c -5.54105,0 -5.54063,9e-5 -7.51367,17.84961 -1.08523,9.81721 -2.41902,23.14788 -2.96485,29.62308 -0.99221,11.7715 -0.99411,11.7715 4.13281,11.7715 4.50493,0 5.23202,-0.5973 5.99414,-4.9356 0.79928,-4.5496 5.90154,-50.57692 5.89454,-53.16992 0,-0.6266 -2.49542,-1.13867 -5.54297,-1.13867 z m -59.43555,2.0293 c 0.16201,-10e-4 0.33311,0.003 0.51563,0.0117 0.97338,0.045 2.2471,0.22911 3.94921,0.47071 3.7446,0.5316 8.46303,1.52624 10.48243,2.21094 4.97939,1.68822 6.4962,7.96701 3.08203,12.75781 -2.13886,3.001 -3.97882,3.74202 -8.85938,3.57812 -14.31981,-0.481 -14.8314,-1.0446 -12.5332,-13.82812 0.7185,-3.996 0.93311,-5.18475 3.36328,-5.20117 z m 88.94727,0.64648 c -3.3471,-0.0525 -3.5565,2.35537 -5.23633,21.62891 -1.05592,12.1151 -1.98631,25.5862 -2.06641,29.9375 -0.14558,7.9115 -0.14546,7.9119 12.66016,8.4297 7.04306,0.2846 15.87856,0.656 19.63476,0.8242 5.79566,0.2593 6.97609,-0.2028 7.78516,-3.0469 0.52436,-1.8435 0.60434,-3.672 0.17969,-4.0625 -0.42449,-0.3905 -6.90153,-1.0092 -14.39258,-1.3789 -7.49125,-0.3697 -13.85438,-0.8661 -14.14258,-1.1035 -0.28802,-0.2375 0.3419,-11.487 1.39844,-24.99804 1.05655,-13.51081 1.66165,-24.79331 1.34766,-25.07031 -0.3141,-0.2771 -2.80099,-0.7392 -5.52735,-1.0293 -0.61963,-0.0659 -1.16247,-0.12336 -1.64062,-0.13086 z m 349.93554,2.45313 c 0.038,-0.0349 0.11657,0.007 0.17969,0.0215 0.39406,0.0875 1.25985,1.10479 2.38477,2.74219 0.0836,0.12175 0.18709,0.29537 0.27343,0.42383 1.1547,1.71904 2.518,3.94622 3.93946,6.54101 1.4534,2.65336 2.54313,4.64308 3.28125,6.15039 0.73811,1.50731 1.12446,2.53187 1.16992,3.25391 0.0455,0.72204 -0.25043,1.1419 -0.875,1.43945 -0.62457,0.29756 -1.57764,0.47318 -2.84961,0.70703 -2.79836,0.5147 -6.74318,0.93555 -8.76563,0.93555 -0.91019,0 -1.59337,-0.007 -2.07617,-0.18164 -0.48279,-0.17475 -0.76457,-0.51647 -0.87109,-1.18945 -0.10653,-0.67301 -0.0389,-1.67712 0.17969,-3.17188 0.21859,-1.49476 0.58751,-3.4811 1.08007,-6.12109 0.5472,-2.933 1.15312,-5.69928 1.6875,-7.79297 0.53439,-2.09369 0.99725,-3.51481 1.26172,-3.75781 z m -154.84179,0.1875 c -2.96827,0 -5.59941,0.15963 -7.92969,0.49414 -2.33028,0.33451 -4.36049,0.84323 -6.125,1.54101 -3.52904,1.39557 -5.99796,3.54714 -7.69727,6.56836 -0.77328,1.3748 -1.33807,2.71858 -1.69531,4.02735 -0.35724,1.30874 -0.50694,2.58187 -0.45312,3.81835 0.0538,1.23651 0.31159,2.43577 0.77148,3.59375 0.45989,1.15801 1.12146,2.27635 1.98242,3.34961 0.86096,1.07327 1.92069,2.10169 3.17774,3.08399 h 0.002 c 1.25677,0.98192 2.7098,1.91792 4.35742,2.80272 1.64815,0.8851 3.49114,1.7203 5.52539,2.502 2.03425,0.7816 4.26045,1.5096 6.67578,2.1816 3.46392,0.9637 6.26907,1.8991 8.46289,2.8535 2.19385,0.9544 3.77717,1.9272 4.79297,2.9668 0.5079,0.5198 0.87288,1.0565 1.10352,1.6153 0.23064,0.5587 0.32613,1.1404 0.29101,1.75 -0.0351,0.6095 -0.20086,1.2477 -0.49023,1.9199 -0.28937,0.6722 -0.70226,1.3784 -1.23438,2.125 -0.54943,0.7709 -1.07273,1.3877 -1.65429,1.8789 -0.58157,0.4911 -1.22142,0.8575 -2.00391,1.1269 -0.78249,0.2694 -1.70717,0.4412 -2.85937,0.5469 -1.15221,0.1057 -2.53194,0.1445 -4.22266,0.1445 -2.06834,0 -3.93378,-0.1649 -5.56836,-0.4785 -1.63458,-0.3136 -3.03833,-0.7749 -4.18359,-1.373 -0.57264,-0.2991 -1.07964,-0.6333 -1.51953,-0.9981 -0.43989,-0.3647 -0.81308,-0.7606 -1.11329,-1.1875 -0.6004,-0.8536 -0.91406,-1.828 -0.91406,-2.9082 0,-0.3668 -0.11685,-0.6867 -0.35351,-0.959 -0.23667,-0.2722 -0.59378,-0.4962 -1.07227,-0.6757 -0.95698,-0.3591 -2.40213,-0.5352 -4.35742,-0.5352 -2.27116,0 -3.71772,0.1517 -4.5957,0.582 -0.43901,0.2152 -0.73457,0.5011 -0.92188,0.8711 -0.18731,0.37 -0.26562,0.8246 -0.26562,1.3809 0,1.0132 0.39295,2.1989 1.07617,3.4434 0.68321,1.2442 1.65714,2.5486 2.8164,3.8007 1.15927,1.2521 2.50351,2.4522 3.93164,3.4883 1.42816,1.0361 2.93981,1.9075 4.42969,2.5039 1.80097,0.7209 3.77342,1.2424 5.84571,1.5664 2.07226,0.3241 4.2437,0.4511 6.4414,0.3828 2.1977,-0.068 4.42242,-0.3329 6.59961,-0.789 2.17719,-0.4561 4.30759,-1.104 6.31836,-1.9434 2.02035,-0.8434 3.68363,-1.6897 5.04297,-2.6133 2.71868,-1.8471 4.21962,-4.0032 4.91797,-7.0664 0.34917,-1.5316 0.49804,-3.2901 0.49804,-5.3496 0,-0.9996 -0.11999,-1.974 -0.35351,-2.9199 -0.23352,-0.9459 -0.58127,-1.8633 -1.03711,-2.7461 -2.73506,-5.297 -9.3706,-9.37352 -18.69922,-11.21289 -2.85056,-0.56197 -5.29255,-1.17024 -7.35156,-1.84179 -2.05902,-0.67158 -3.73462,-1.40706 -5.05469,-2.22071 -2.64014,-1.62728 -3.85547,-3.57063 -3.85547,-5.96093 0,-0.70145 0.0909,-1.32819 0.29102,-1.90235 0.20008,-0.57416 0.50839,-1.09566 0.94726,-1.58594 0.87775,-0.98055 2.27274,-1.83681 4.33789,-2.74218 7.07463,-3.1015 14.18686,-1.24165 17.23633,4.50976 0.45042,0.84955 0.85747,1.51821 1.27149,2.03125 0.41401,0.51305 0.83489,0.87052 1.3164,1.0957 0.48152,0.22521 1.02287,0.31866 1.67578,0.30469 0.65292,-0.014 1.4175,-0.13537 2.34571,-0.33984 1.49386,-0.3292 2.62276,-0.58856 3.44922,-0.86524 0.82643,-0.27667 1.35007,-0.57098 1.63085,-0.96679 0.28081,-0.39581 0.31887,-0.89347 0.17579,-1.58008 -0.14309,-0.68661 -0.46691,-1.56186 -0.91211,-2.71094 -2.0411,-5.26845 -6.41233,-8.47147 -13.38868,-9.74414 -2.32543,-0.42422 -4.94119,-0.63476 -7.85546,-0.63476 z m -137.69727,0.75976 c -0.78852,0 -1.48341,0.0241 -2.09766,0.13086 -0.61425,0.10673 -1.14862,0.29647 -1.61328,0.625 -0.46466,0.32853 -0.85947,0.79555 -1.19922,1.46094 -0.33974,0.66538 -0.62376,1.52917 -0.86328,2.64648 -0.47904,2.23463 -0.78159,5.48798 -1.00781,10.22071 -0.22622,4.7327 -0.37604,10.94432 -0.54687,19.09573 -0.12737,6.0764 -0.2233,10.6345 0.002,14.0644 0.11262,1.715 0.3061,3.1475 0.61523,4.3477 0.30914,1.2002 0.73463,2.1678 1.3125,2.9512 0.57788,0.7831 1.30771,1.3832 2.22657,1.8476 0.91883,0.4644 2.0273,0.7938 3.35937,1.0371 2.66414,0.4867 6.22617,0.6285 10.97656,0.8184 10.45094,0.4177 19.55863,0.547 20.24024,0.289 0.34076,-0.1292 0.65013,-0.6632 0.875,-1.4199 0.22486,-0.7567 0.36523,-1.7362 0.36523,-2.7558 0,-0.8963 -0.0262,-1.5764 -0.25195,-2.0957 -0.22581,-0.5194 -0.6509,-0.8789 -1.45117,-1.1309 -0.80027,-0.252 -1.97582,-0.396 -3.69922,-0.4902 -1.7234,-0.094 -3.99505,-0.1377 -6.99024,-0.1836 -6.81582,-0.1045 -13.32297,-0.2771 -14.45898,-0.3848 -0.39737,-0.038 -0.71615,-0.4355 -0.96289,-1.3164 -0.24674,-0.881 -0.42122,-2.2455 -0.53125,-4.2168 -0.22006,-3.9426 -0.18082,-10.3132 0.0625,-20.10157 0.1581,-6.35954 0.2763,-11.12966 0.28711,-14.70703 0.0108,-3.57735 -0.0867,-5.9627 -0.35938,-7.55273 -0.13633,-0.79502 -0.31609,-1.39067 -0.54883,-1.83789 -0.23271,-0.44722 -0.51713,-0.74458 -0.86328,-0.94336 -0.6923,-0.39758 -1.62884,-0.39844 -2.87695,-0.39844 z m 71.3457,0.0957 c -8.31032,-0.053 -16.58659,3.29756 -21.50781,10.07422 -4.22971,5.8242 -6.14888,17.3831 -4.63281,27.8906 1.35787,9.4106 6.29512,16.5244 13.9082,20.041 3.16272,1.4609 8.72619,2.6563 12.36133,2.6563 8.69421,0 17.2178,-4.0839 21.86133,-10.4746 3.25028,-4.4731 3.75,-7.1109 3.75,-19.7754 0,-12.98745 -0.44994,-15.21906 -4.03125,-20.06446 -5.05493,-6.83926 -13.39879,-10.29506 -21.70899,-10.34766 z m 158.30079,0.30274 c 0.50892,0.004 1.00179,0.0211 1.47656,0.0508 1.89893,0.1185 3.49229,0.44504 4.54883,0.96484 4.73108,2.3279 6.34607,8.78908 2.9707,11.89258 -1.44453,1.328 -6.37474,2.85248 -10.95508,3.39258 -6.91728,0.816 -8.33276,0.57961 -8.34766,-1.40234 -0.009,-1.3123 -0.46787,-4.89604 -1.01953,-7.96289 -1.003,-5.577 -1.0041,-5.57762 6.4375,-6.60352 1.69733,-0.23404 3.36181,-0.34279 4.88868,-0.33203 z m -158.9629,8.94726 c 3.08999,-0.0503 6.60552,0.49006 8.29688,1.32227 10.71238,5.27097 10.84241,34.09265 0.17773,39.33985 -1.83474,0.9027 -5.87293,1.6406 -8.97265,1.6406 -9.47232,0 -14.40821,-7.7652 -14.40821,-22.6621 0,-11.87303 4.89343,-18.91042 13.61524,-19.58202 0.41753,-0.0322 0.84959,-0.0514 1.29101,-0.0586 z m 162.05274,14.98243 c 5.28073,-0.017 8.42408,0.82186 10.32617,2.75389 3.95924,4.0221 3.47408,10.4002 -0.98437,12.957 -2.04481,1.1724 -7.19861,2.5355 -11.45313,3.0293 -7.73563,0.8982 -7.73419,0.8962 -8.88672,-7.5839 -1.35913,-10.00137 -0.25233,-11.12169 10.99805,-11.15629 z" />
  </g>
</svg>
